<svg id="图层_1" data-name="图层 1" xmlns="http://www.w3.org/2000/svg" viewBox="0 0 468.4 167.48"><defs><style>.cls-1{fill:#fff;}</style></defs><title>智优康赛logo</title><path class="cls-1" d="M149.75,114.78v3.42q6.81-1,9.58-4.34,2.76,3.15,8.57,4.15v-3.73a13.81,13.81,0,0,1-5.61-3.19h5.76v-3.15h-6.53a13.3,13.3,0,0,0,.07-1.43v-1.38h5.65v-1a2.18,2.18,0,0,0-2.18-2.18h-8a10.8,10.8,0,0,0,.57-1.77h-4.3a5.9,5.9,0,0,1-3.61,3.5V107a9.52,9.52,0,0,0,5-1.85h2v1.46a12,12,0,0,1-.07,1.35h-6.92v3.15h5.8Q153.9,113.55,149.75,114.78Z"/><path class="cls-1" d="M178.75,118.39H153.14v16.22h27.79v-14A2.19,2.19,0,0,0,178.75,118.39Zm-3,12.73H158.33V128h17.41Zm0-6.31H158.33v-2.92h17.41Z"/><path class="cls-1" d="M180.82,102H169.13v14.37H183V104.2A2.17,2.17,0,0,0,180.82,102Zm-2.54,11.18h-4.42v-8h4.42Z"/><path class="cls-1" d="M218.75,106.36a44,44,0,0,0-1.42-5.3h-4.81q.93,3.45,1.23,5.3Z"/><polygon class="cls-1" points="218.6 130.38 214.83 130.38 214.83 113.7 209.53 113.7 209.53 134.12 222.63 134.12 222.63 127 218.6 127 218.6 130.38"/><path class="cls-1" d="M222.06,111v-.8a2.86,2.86,0,0,0-2.85-2.85H209.8v-7h-5.5v7h-6.07V111h6q-.45,11.73-6,18.92v5.34q10.49-5.88,11.49-24.26Z"/><path class="cls-1" d="M194.5,100.44a17.32,17.32,0,0,1-6.81,10.34v4.38a18,18,0,0,0,3.85-1.53v21.56h5.34V108.55a22.47,22.47,0,0,0,2.88-8.11Z"/><path class="cls-1" d="M258.38,108H249v-2.15h12v-.67a2.83,2.83,0,0,0-2.83-2.83h-9.2v-2.15h-6.62v2.15H229v17a32.1,32.1,0,0,1-.49,6.38,14.58,14.58,0,0,1-1.81,4.57v5q7.68-3,7.65-15.69v-3H244v2H235.4V122H244v9.68h-3.12v3.38H249v-6.84a33.49,33.49,0,0,0,11.57,6.08v-4.16a31.86,31.86,0,0,1-5-2.34h.47a17.22,17.22,0,0,0,1.57-5h-4.3a26,26,0,0,1-.77,3,35.19,35.19,0,0,1-3.58-3V122h9.38v-5.39h2.92v-3.34h-2.92ZM244,108h-8.34v3.35H244v1.92h-9.61v-7.42H244Zm9.68,10.65H249v-2h4.65Zm0-5.38H249v-1.92h4.65Z"/><path class="cls-1" d="M233.05,133.65A37.42,37.42,0,0,0,243.28,129v-4.23l-.66.35c-.82.46-1.43.79-1.84,1a18.69,18.69,0,0,1-.89-3.27h-4.3a17.22,17.22,0,0,0,1.57,5,37.52,37.52,0,0,1-4.11,1.54Z"/><path class="cls-1" d="M270.87,104.94h22.68v2.5h5.35v-2a3.53,3.53,0,0,0-3.52-3.52h-9.71v-1.69H279v1.69h-9.43a4.06,4.06,0,0,0-4.06,4.06v1.44h5.34Z"/><path class="cls-1" d="M292.55,119h6.58v-2.81h-8.77v-1.69h6.08V111.9h-6.08v-1.58h5.23v-2.57h-5.23V106h-5.19v1.77h-5.84V106h-5.19v1.77H269v2.57h5.19v1.58h-6v2.57h6v1.69h-8.76V119h6.49A23.61,23.61,0,0,1,265,122v3.54a29.76,29.76,0,0,0,6.11-1.69v5.53h5v-5.61h12.53v5.61h5V124a27.18,27.18,0,0,0,5.8,1.58V122A23.23,23.23,0,0,1,292.55,119Zm-13.22-8.65h5.84v1.58h-5.84Zm0,4.15h5.84v1.69h-5.84Zm-3.07,6.46a14.6,14.6,0,0,0,2.15-2h7.65a12.59,12.59,0,0,0,2.11,2Z"/><path class="cls-1" d="M285.21,125.81v-1.08h-5.8v1.08q.34,4.89-13,6v3.5q12.21-.39,16-4.23,4.3,3.65,15.68,4.23v-3.54Q284.86,130.43,285.21,125.81Z"/><path class="cls-1" d="M141.27,59.15c0-14.71,6.65-18.81,17.93-18.81a35.59,35.59,0,0,1,8.61.93,1,1,0,0,1,.72.94v6.12a1,1,0,0,1-1.24.93,24.08,24.08,0,0,0-6.82-.93c-6.44,0-9.2,2.42-9.2,10.82s2.76,10.74,9.41,10.74a23.72,23.72,0,0,0,6.93-.91,1,1,0,0,1,1.26.93v6a1,1,0,0,1-.67.92,33.24,33.24,0,0,1-9,1.17C147.92,78,141.27,73.85,141.27,59.15Z"/><path class="cls-1" d="M173.51,63.19c0-11.55,5.11-14.76,14-14.76s13.92,3.21,13.92,14.76S196.28,78,187.48,78,173.51,74.73,173.51,63.19Zm20.08,0c0-6.91-1.53-9.07-6.11-9.07s-6.12,2.16-6.12,9.07,1.53,9,6.12,9S193.59,70.15,193.59,63.19Z"/><path class="cls-1" d="M233.61,58V76.66a.77.77,0,0,1-.77.76h-6.11a.76.76,0,0,1-.77-.76V60c0-3.85-.9-5.32-4.64-5.32-3.12,0-5.16.92-6,3.78a1,1,0,0,0,0,.24v18a.76.76,0,0,1-.77.76h-6.11a.77.77,0,0,1-.77-.76V49.72a.78.78,0,0,1,.77-.77h6.11a.77.77,0,0,1,.77.77v.49a.76.76,0,0,0,1.26.58c1.75-1.6,4.41-2.36,7.65-2.36C231.23,48.43,233.61,51.69,233.61,58Z"/><path class="cls-1" d="M239.67,63.19c0-11.55,5.22-14.76,14.07-14.76a28.14,28.14,0,0,1,6.77.72.77.77,0,0,1,.56.74V54.7a.76.76,0,0,1-1,.73,18.56,18.56,0,0,0-5.35-.73c-5.06,0-7.22,1.9-7.22,8.49s2.16,8.43,7.38,8.43a18.53,18.53,0,0,0,5.45-.71.76.76,0,0,1,1,.73v4.67a.75.75,0,0,1-.53.72,26.24,26.24,0,0,1-7.07.92C244.89,78,239.67,74.73,239.67,63.19Z"/><path class="cls-1" d="M291.35,64.91,274.42,66a.78.78,0,0,0-.72.88c.53,3.48,2.91,5.08,7.61,5.08a25.48,25.48,0,0,0,8.4-1.53.76.76,0,0,1,1,.71v4.36a.74.74,0,0,1-.43.69A27.24,27.24,0,0,1,279.84,78C271.14,78,266,74.73,266,63.19s5.17-14.76,14.08-14.76c9.91,0,12.18,5.16,12.18,12.49a30.31,30.31,0,0,1-.17,3.33A.75.75,0,0,1,291.35,64.91Zm-6.81-5a.77.77,0,0,0,.71-.8c-.13-2.76-1.08-4.9-5.2-4.9-4.37,0-6,1.78-6.38,5.64a.77.77,0,0,0,.83.83Z"/><path class="cls-1" d="M325.91,63.19c0,8.17-2.1,14.76-11.33,14.76-3.69,0-5.9-.82-7.27-2.19a.77.77,0,0,0-1.32.53V87.2a.78.78,0,0,1-.77.77h-6.11a.78.78,0,0,1-.77-.77V49.72a.78.78,0,0,1,.77-.77h6.11a.78.78,0,0,1,.77.77v.42a.76.76,0,0,0,1.27.57c1.41-1.32,3.71-2.28,7.32-2.28C323.81,48.43,325.91,54.12,325.91,63.19Zm-7.8,0c0-5.22-.79-9.07-5.95-9.07s-6.59,3.32-6.59,9.07c0,5.48,1.37,9,6.59,9S318.11,68.09,318.11,63.19Z"/><path class="cls-1" d="M341.12,55a.77.77,0,0,0-.76.77V67.67c0,3.32.58,4.11,3.27,4.11.51,0,1,0,1.42-.06a.76.76,0,0,1,.84.76V76.8a.76.76,0,0,1-.68.76,26.46,26.46,0,0,1-3,.18c-7,0-9.49-1.95-9.49-9.44V55.73A.77.77,0,0,0,332,55h-2.21a.76.76,0,0,1-.77-.76V49.72a.77.77,0,0,1,.77-.77H332a.76.76,0,0,0,.76-.76V43a.78.78,0,0,1,.77-.77h6.11a.77.77,0,0,1,.77.77v5.22a.76.76,0,0,0,.76.76h4.38a.77.77,0,0,1,.76.77V54.2a.76.76,0,0,1-.76.76Z"/><path class="cls-1" d="M349.79,76.22V71.48a.77.77,0,0,1,1-.74,31.4,31.4,0,0,0,7.64,1c3.32,0,4.74-.58,4.74-2.85s-.89-2.84-5.48-4c-6.12-1.42-7.54-3.27-7.54-8.07,0-5.32,3.11-8.48,11.39-8.48a29.77,29.77,0,0,1,7.23.76.75.75,0,0,1,.54.77L369,54.3a.76.76,0,0,1-.93.7,30.82,30.82,0,0,0-6.34-.83c-3.53,0-4.48.69-4.48,2.64,0,1.79.79,2.11,5.27,3.21,6.22,1.59,7.86,3.48,7.86,8.7,0,6.7-4.27,9-11.6,9A42.72,42.72,0,0,1,350.4,77,.76.76,0,0,1,349.79,76.22Z"/><path class="cls-1" d="M77.74,79.36A4,4,0,0,1,76,79a4,4,0,0,1-2-5.36L92.26,34.57a4.06,4.06,0,0,1,3.67-2.33h0a4,4,0,0,1,3.66,2.33l18.18,39.05a4,4,0,0,1-3.67,5.74h-8.8a4,4,0,1,1,0-8.08h2.47L95.93,45.85,81.41,77A4,4,0,0,1,77.74,79.36Z"/><path class="cls-1" d="M127.15,79.92a4,4,0,0,1-4-4v-28a4,4,0,1,1,8.08,0v28A4,4,0,0,1,127.15,79.92Z"/><circle class="cls-1" cx="127.13" cy="36.28" r="4.06"/><circle class="cls-1" cx="92.05" cy="75.34" r="4.05"/></svg>