<svg id="图层_1" data-name="图层 1" xmlns="http://www.w3.org/2000/svg" viewBox="0 0 468.4 167.48"><defs><style>.cls-1{fill:#231815;}</style></defs><title>智优康赛logo</title><path class="cls-1" d="M177.52,61.6v3.86q7.66-1.08,10.79-4.9,3.12,3.55,9.66,4.68V61a15.67,15.67,0,0,1-6.33-3.6h6.5V53.89h-7.36c.05-.52.08-1,.08-1.6V50.73h6.37V49.59a2.46,2.46,0,0,0-2.46-2.46h-9a12.22,12.22,0,0,0,.65-2h-4.85a6.65,6.65,0,0,1-4.07,3.94v3.73a10.83,10.83,0,0,0,5.63-2.08h2.25v1.64a12.54,12.54,0,0,1-.09,1.52h-7.79v3.55H184Q182.21,60.22,177.52,61.6Z"/><path class="cls-1" d="M210.2,65.67H181.33V84h31.32V68.13A2.46,2.46,0,0,0,210.2,65.67ZM206.81,80H187.18V76.5h19.63Zm0-7.1H187.18V69.62h19.63Z"/><path class="cls-1" d="M212.54,47.22H199.35v16.2H215V49.68A2.46,2.46,0,0,0,212.54,47.22Zm-2.87,12.6h-5v-9h5Z"/><path class="cls-1" d="M255.28,52.11a49.21,49.21,0,0,0-1.6-6h-5.41c.69,2.6,1.15,4.6,1.38,6Z"/><polygon class="cls-1" points="255.11 79.19 250.87 79.19 250.87 60.39 244.89 60.39 244.89 83.39 259.66 83.39 259.66 75.38 255.11 75.38 255.11 79.19"/><path class="cls-1" d="M259,57.31v-.9a3.21,3.21,0,0,0-3.21-3.21H245.19V45.31H239V53.2h-6.84v4.11h6.72q-.52,13.22-6.76,21.32v6Q243.93,78,245.06,57.31Z"/><path class="cls-1" d="M228,45.44a19.56,19.56,0,0,1-7.67,11.66V62a21.06,21.06,0,0,0,4.33-1.74V84.61h6v-30a25.24,25.24,0,0,0,3.25-9.14Z"/><path class="cls-1" d="M300,54H289.38V51.55h13.47V50.8a3.18,3.18,0,0,0-3.18-3.19H289.29V45.18h-7.45v2.43h-15v19.1a36.14,36.14,0,0,1-.56,7.19,16.43,16.43,0,0,1-2,5.16v5.63q8.67-3.37,8.62-17.67V63.68H283.7V66H274v3.77h9.66V80.66h-3.5v3.81h9.18V76.76a37.63,37.63,0,0,0,13,6.85V78.93a36.86,36.86,0,0,1-5.59-2.64h.52a19.34,19.34,0,0,0,1.78-5.59h-4.85a27.85,27.85,0,0,1-.87,3.33,40,40,0,0,1-4-3.33v-1H300V63.68h3.29V59.91H300ZM283.7,54h-9.4v3.77h9.4v2.16H272.87V51.55H283.7Zm10.92,12h-5.24v-2.3h5.24Zm0-6.07h-5.24V57.75h5.24Z"/><path class="cls-1" d="M271.4,82.87a42.27,42.27,0,0,0,11.53-5.24V72.87c-.18.08-.42.21-.74.39-.93.52-1.62.89-2.08,1.12a20.9,20.9,0,0,1-1-3.68h-4.85A19.34,19.34,0,0,0,276,76.29,40.46,40.46,0,0,1,271.4,78Z"/><path class="cls-1" d="M314,50.51h25.56v2.82h6V51.09a4,4,0,0,0-4-4H330.71V45.22h-7.49v1.91H312.58A4.58,4.58,0,0,0,308,51.7v1.63h6Z"/><path class="cls-1" d="M338.46,66.32h7.41V63.16H336V61.25h6.84v-2.9H336V56.58h5.89V53.67H336v-2h-5.85v2h-6.59v-2h-5.85v2h-5.85v2.91h5.85v1.77h-6.8v2.9h6.8v1.91h-9.87v3.16h7.32a26.81,26.81,0,0,1-7.71,3.47v4a34,34,0,0,0,6.88-1.91v6.24H320V71.78h14.12v6.33h5.63V72a31.74,31.74,0,0,0,6.54,1.78v-4A26.12,26.12,0,0,1,338.46,66.32Zm-14.9-9.74h6.59v1.77h-6.59Zm0,4.67h6.59v1.91h-6.59Zm-3.46,7.28a15.66,15.66,0,0,0,2.42-2.21h8.62a14.22,14.22,0,0,0,2.39,2.21Z"/><path class="cls-1" d="M330.19,74V72.82h-6.54V74q.39,5.5-14.64,6.72v3.94q13.77-.43,18-4.76,4.85,4.11,17.67,4.76v-4Q329.8,79.22,330.19,74Z"/><path class="cls-1" d="M176.05,103.18c0-11,4.95-14,13.37-14a26.39,26.39,0,0,1,6.42.69.73.73,0,0,1,.54.7v4.57a.72.72,0,0,1-.93.69,17.83,17.83,0,0,0-5.08-.69c-4.81,0-6.86,1.8-6.86,8.06s2.05,8,7,8a17.64,17.64,0,0,0,5.17-.68.72.72,0,0,1,.94.69v4.44a.73.73,0,0,1-.5.69,24.94,24.94,0,0,1-6.71.87C181,117.21,176.05,114.15,176.05,103.18Z"/><path class="cls-1" d="M200.09,106.2c0-8.61,3.82-11,10.42-11s10.38,2.4,10.38,11-3.81,11-10.38,11S200.09,114.81,200.09,106.2Zm15,0c0-5.15-1.14-6.77-4.56-6.77S206,101.05,206,106.2s1.14,6.68,4.56,6.68S215.07,111.39,215.07,106.2Z"/><path class="cls-1" d="M244.92,102.3v13.94a.57.57,0,0,1-.58.57h-4.55a.57.57,0,0,1-.58-.57V103.8c0-2.87-.66-4-3.46-4-2.32,0-3.85.69-4.49,2.82a.57.57,0,0,0,0,.18v13.41a.56.56,0,0,1-.57.57H226.1a.57.57,0,0,1-.57-.57V96.15a.58.58,0,0,1,.57-.57h4.56a.57.57,0,0,1,.57.57v.37a.57.57,0,0,0,.94.43,8.34,8.34,0,0,1,5.71-1.76C243.15,95.19,244.92,97.63,244.92,102.3Z"/><path class="cls-1" d="M249.44,106.2c0-8.61,3.89-11,10.5-11a20.9,20.9,0,0,1,5,.54.57.57,0,0,1,.42.55v3.58a.57.57,0,0,1-.73.55,13.75,13.75,0,0,0-4-.54c-3.77,0-5.38,1.41-5.38,6.33s1.61,6.29,5.5,6.29a13.64,13.64,0,0,0,4.06-.54.58.58,0,0,1,.74.55V116a.56.56,0,0,1-.39.54,19.4,19.4,0,0,1-5.27.69C253.33,117.21,249.44,114.81,249.44,106.2Z"/><path class="cls-1" d="M288,107.48l-12.62.8a.58.58,0,0,0-.54.65c.39,2.6,2.17,3.79,5.68,3.79a18.9,18.9,0,0,0,6.27-1.14.57.57,0,0,1,.77.54v3.25a.55.55,0,0,1-.32.51,20.3,20.3,0,0,1-7.82,1.33c-6.49,0-10.34-2.4-10.34-11s3.85-11,10.5-11c7.39,0,9.08,3.85,9.08,9.32a24,24,0,0,1-.12,2.48A.57.57,0,0,1,288,107.48Zm-5.07-3.76a.57.57,0,0,0,.53-.59c-.1-2.06-.81-3.66-3.88-3.66-3.26,0-4.51,1.33-4.76,4.21a.57.57,0,0,0,.61.62Z"/><path class="cls-1" d="M313.77,106.2c0,6.09-1.58,11-8.46,11-2.75,0-4.4-.61-5.42-1.63a.57.57,0,0,0-1,.39v8.14a.57.57,0,0,1-.57.57h-4.56a.58.58,0,0,1-.57-.57v-28a.58.58,0,0,1,.57-.57h4.56a.57.57,0,0,1,.57.57v.31a.57.57,0,0,0,1,.43c1-1,2.77-1.7,5.46-1.7C312.19,95.19,313.77,99.43,313.77,106.2Zm-5.82,0c0-3.9-.59-6.77-4.45-6.77s-4.91,2.48-4.91,6.77c0,4.09,1,6.68,4.91,6.68S308,109.85,308,106.2Z"/><path class="cls-1" d="M325.11,100.06a.57.57,0,0,0-.57.57v8.91c0,2.48.43,3.07,2.44,3.07.38,0,.74,0,1.06,0a.57.57,0,0,1,.63.57v3.22a.57.57,0,0,1-.51.57,20.47,20.47,0,0,1-2.25.13c-5.23,0-7.07-1.46-7.07-7v-9.38a.58.58,0,0,0-.57-.57h-1.65a.57.57,0,0,1-.58-.57V96.15a.58.58,0,0,1,.58-.57h1.65a.58.58,0,0,0,.57-.57V91.12a.56.56,0,0,1,.57-.57H324a.57.57,0,0,1,.57.57V95a.57.57,0,0,0,.57.57h3.26a.57.57,0,0,1,.57.57v3.34a.56.56,0,0,1-.57.57Z"/><path class="cls-1" d="M331.58,115.92v-3.54a.57.57,0,0,1,.71-.55,23.42,23.42,0,0,0,5.7.78c2.47,0,3.53-.44,3.53-2.13s-.66-2.12-4.08-3c-4.57-1.06-5.63-2.43-5.63-6,0-4,2.32-6.33,8.5-6.33a22.25,22.25,0,0,1,5.39.56.57.57,0,0,1,.4.58l-.17,3.24a.57.57,0,0,1-.7.52,23,23,0,0,0-4.73-.62c-2.63,0-3.34.51-3.34,2s.59,1.57,3.93,2.4c4.64,1.18,5.86,2.59,5.86,6.49,0,5-3.18,6.72-8.65,6.72a32.06,32.06,0,0,1-6.27-.57A.57.57,0,0,1,331.58,115.92Z"/><path class="cls-1" d="M83.55,117.82a6,6,0,0,1-2.61-.58,6.19,6.19,0,0,1-3-8.23l27.87-59.86a6.21,6.21,0,0,1,5.61-3.58h0A6.21,6.21,0,0,1,117,49.15L144.91,109a6.19,6.19,0,0,1-5.61,8.81H125.8a6.2,6.2,0,0,1,0-12.39h3.78l-18.16-39-22.25,47.8A6.19,6.19,0,0,1,83.55,117.82Z"/><path class="cls-1" d="M159.29,118.68a6.19,6.19,0,0,1-6.19-6.19V69.54a6.2,6.2,0,0,1,12.39,0v42.95A6.19,6.19,0,0,1,159.29,118.68Z"/><circle class="cls-1" cx="159.27" cy="51.77" r="6.23"/><circle class="cls-1" cx="105.48" cy="111.65" r="6.21"/></svg>