<svg id="图层_1" data-name="图层 1" xmlns="http://www.w3.org/2000/svg" viewBox="0 0 468.4 167.48"><defs><style>.cls-1{fill:#fff;}</style></defs><title>智优康赛logo</title><path class="cls-1" d="M305.52,84.13v2.08q4.14-.58,5.83-2.64a8.65,8.65,0,0,0,5.21,2.53V83.83a8.37,8.37,0,0,1-3.41-2h3.51V80h-4a8.14,8.14,0,0,0,.05-.87v-.84h3.43v-.61a1.32,1.32,0,0,0-1.32-1.33H310a7.6,7.6,0,0,0,.35-1.08H307.7a3.6,3.6,0,0,1-2.2,2.13v2a5.79,5.79,0,0,0,3-1.12h1.22v.89a7.37,7.37,0,0,1-.05.82H305.5v1.91H309A6,6,0,0,1,305.52,84.13Z"/><path class="cls-1" d="M323.16,86.33H307.58V96.2h16.91V87.66A1.32,1.32,0,0,0,323.16,86.33Zm-1.83,7.74H310.74V92.18h10.59Zm0-3.83H310.74V88.46h10.59Z"/><path class="cls-1" d="M324.43,76.36h-7.12v8.75h8.44V77.69A1.33,1.33,0,0,0,324.43,76.36Zm-1.55,6.81h-2.69V78.31h2.69Z"/><path class="cls-1" d="M347.51,79a28.62,28.62,0,0,0-.87-3.23h-2.92c.37,1.4.62,2.48.74,3.23Z"/><polygon class="cls-1" points="347.41 93.63 345.12 93.63 345.12 83.47 341.89 83.47 341.89 95.89 349.87 95.89 349.87 91.57 347.41 91.57 347.41 93.63"/><path class="cls-1" d="M349.52,81.81v-.48a1.74,1.74,0,0,0-1.74-1.74h-5.72V75.34h-3.35v4.25H335v2.22h3.62q-.28,7.14-3.65,11.51v3.25q6.39-3.57,7-14.76Z"/><path class="cls-1" d="M332.75,75.41a10.58,10.58,0,0,1-4.14,6.29v2.66a11,11,0,0,0,2.34-.93V96.55h3.25V80.34A13.7,13.7,0,0,0,336,75.41Z"/><path class="cls-1" d="M371.62,80h-5.71V78.7h7.28v-.4a1.72,1.72,0,0,0-1.72-1.72h-5.6V75.27h-4v1.31h-8.09V86.89a19.49,19.49,0,0,1-.3,3.88,9.06,9.06,0,0,1-1.1,2.79v3Q357,94.77,357,87.05v-1.8h5.85v1.24h-5.22v2h5.22v5.89H361v2.06h5V92.32A20.37,20.37,0,0,0,373,96V93.49a19.88,19.88,0,0,1-3-1.43h.28a10.83,10.83,0,0,0,1-3h-2.62a14.75,14.75,0,0,1-.47,1.8,21.13,21.13,0,0,1-2.18-1.8v-.51h5.71V85.25h1.78v-2h-1.78Zm-8.77,0h-5.08v2h5.08v1.17H357V78.7h5.85Zm5.89,6.48h-2.83V85.25h2.83Zm0-3.27h-2.83V82.05h2.83Z"/><path class="cls-1" d="M356.21,95.61a22.65,22.65,0,0,0,6.22-2.83V90.21l-.4.21c-.5.28-.87.49-1.12.61a10.39,10.39,0,0,1-.54-2h-2.62a10.21,10.21,0,0,0,1,3,21.23,21.23,0,0,1-2.5.93Z"/><path class="cls-1" d="M379.22,78.14H393v1.52h3.25v-1.2a2.14,2.14,0,0,0-2.14-2.14h-5.9v-1h-4.05v1h-5.74A2.47,2.47,0,0,0,376,78.79v.87h3.25Z"/><path class="cls-1" d="M392.41,86.68h4V85h-5.33v-1h3.7V82.38h-3.7v-1h3.18V79.85h-3.18V78.77h-3.16v1.08h-3.55V78.77h-3.16v1.08h-3.16v1.57h3.16v1h-3.67v1.56h3.67v1h-5.33v1.71h3.95a14.37,14.37,0,0,1-4.16,1.87V90.7a17.75,17.75,0,0,0,3.72-1V93h3V89.63h7.62V93h3v-3.3a17.1,17.1,0,0,0,3.53,1V88.53A14.18,14.18,0,0,1,392.41,86.68Zm-8-5.26h3.55v1h-3.55Zm0,2.52h3.55v1h-3.55Zm-1.87,3.93a9.09,9.09,0,0,0,1.31-1.19h4.65a7.63,7.63,0,0,0,1.29,1.19Z"/><path class="cls-1" d="M388,90.84v-.65h-3.54v.65q.21,3-7.9,3.63V96.6q7.44-.24,9.73-2.58c1.74,1.48,4.93,2.34,9.54,2.58V94.44Q387.74,93.65,388,90.84Z"/><path class="cls-1" d="M130.73,83.05c0-10.71,4.85-13.7,13.07-13.7a25.79,25.79,0,0,1,6.27.68.71.71,0,0,1,.53.69v4.45a.71.71,0,0,1-.91.68,17.45,17.45,0,0,0-5-.67c-4.7,0-6.71,1.76-6.71,7.87s2,7.83,6.85,7.83a17.27,17.27,0,0,0,5.06-.66.7.7,0,0,1,.91.67v4.34a.7.7,0,0,1-.48.67,24.39,24.39,0,0,1-6.56.85C135.58,96.75,130.73,93.77,130.73,83.05Z"/><path class="cls-1" d="M154.22,86c0-8.41,3.73-10.76,10.18-10.76S174.54,77.59,174.54,86s-3.73,10.75-10.14,10.75S154.22,94.41,154.22,86Zm14.64,0c0-5-1.12-6.61-4.46-6.61S159.94,81,159.94,86s1.12,6.53,4.46,6.53S168.86,91.07,168.86,86Z"/><path class="cls-1" d="M198,82.19V95.81a.56.56,0,0,1-.56.56H193a.56.56,0,0,1-.56-.56V83.65c0-2.8-.66-3.88-3.38-3.88-2.28,0-3.77.68-4.39,2.76a.55.55,0,0,0,0,.17V95.81a.56.56,0,0,1-.56.56h-4.45a.56.56,0,0,1-.56-.56V76.18a.56.56,0,0,1,.56-.55h4.45a.56.56,0,0,1,.56.55v.36a.56.56,0,0,0,.92.43,8.08,8.08,0,0,1,5.57-1.73C196.28,75.24,198,77.62,198,82.19Z"/><path class="cls-1" d="M202.42,86c0-8.41,3.81-10.76,10.26-10.76a20.6,20.6,0,0,1,4.93.53.57.57,0,0,1,.41.54v3.5a.55.55,0,0,1-.71.53,13.93,13.93,0,0,0-3.9-.53c-3.69,0-5.26,1.39-5.26,6.19s1.57,6.14,5.37,6.14a13.36,13.36,0,0,0,4-.52.56.56,0,0,1,.72.53v3.4a.56.56,0,0,1-.38.54,19.4,19.4,0,0,1-5.15.66C206.23,96.75,202.42,94.41,202.42,86Z"/><path class="cls-1" d="M240.08,87.25,227.74,88a.57.57,0,0,0-.52.64c.38,2.54,2.12,3.7,5.55,3.7a18.56,18.56,0,0,0,6.12-1.11.55.55,0,0,1,.75.52V95a.56.56,0,0,1-.31.5,19.88,19.88,0,0,1-7.64,1.29c-6.34,0-10.1-2.34-10.1-10.75s3.76-10.76,10.25-10.76c7.23,0,8.88,3.77,8.88,9.11a22.91,22.91,0,0,1-.12,2.42A.56.56,0,0,1,240.08,87.25Zm-5-3.67a.56.56,0,0,0,.52-.58c-.1-2-.79-3.57-3.8-3.57-3.18,0-4.4,1.3-4.64,4.11a.56.56,0,0,0,.6.6Z"/><path class="cls-1" d="M265.26,86c0,6-1.54,10.75-8.26,10.75-2.68,0-4.3-.59-5.3-1.59a.56.56,0,0,0-1,.38v7.95a.56.56,0,0,1-.56.56h-4.45a.56.56,0,0,1-.56-.56V76.18a.56.56,0,0,1,.56-.55h4.45a.56.56,0,0,1,.56.55v.31a.56.56,0,0,0,.93.42c1-1,2.7-1.67,5.33-1.67C263.72,75.24,265.26,79.39,265.26,86Zm-5.68,0c0-3.81-.58-6.61-4.34-6.61s-4.81,2.42-4.81,6.61c0,4,1,6.53,4.81,6.53S259.58,89.57,259.58,86Z"/><path class="cls-1" d="M276.34,80a.56.56,0,0,0-.56.55v8.7c0,2.42.43,3,2.39,3a8.26,8.26,0,0,0,1-.05.56.56,0,0,1,.62.56v3.14a.56.56,0,0,1-.5.56,19.38,19.38,0,0,1-2.19.13c-5.11,0-6.92-1.42-6.92-6.88V80.56a.55.55,0,0,0-.55-.55h-1.61a.56.56,0,0,1-.56-.56V76.18a.56.56,0,0,1,.56-.55h1.61a.56.56,0,0,0,.55-.56v-3.8a.56.56,0,0,1,.56-.56h4.46a.56.56,0,0,1,.55.56v3.8a.56.56,0,0,0,.56.56h3.19a.56.56,0,0,1,.56.55v3.27a.56.56,0,0,1-.56.56Z"/><path class="cls-1" d="M282.66,95.49V92a.55.55,0,0,1,.69-.54,22.84,22.84,0,0,0,5.57.76c2.42,0,3.46-.42,3.46-2.08s-.66-2.07-4-2.88c-4.45-1-5.49-2.38-5.49-5.87,0-3.88,2.27-6.19,8.3-6.19a21.21,21.21,0,0,1,5.26.56.55.55,0,0,1,.4.56l-.17,3.16A.56.56,0,0,1,296,80a22.69,22.69,0,0,0-4.61-.6c-2.58,0-3.27.5-3.27,1.92s.58,1.54,3.84,2.34c4.54,1.15,5.73,2.54,5.73,6.34,0,4.88-3.11,6.57-8.45,6.57A31.46,31.46,0,0,1,283.1,96,.55.55,0,0,1,282.66,95.49Z"/><path class="cls-1" d="M84.45,97.78a3,3,0,0,1-1.24-.27,2.94,2.94,0,0,1-1.42-3.91L95,65.15a2.93,2.93,0,0,1,2.67-1.7h0a3,3,0,0,1,2.67,1.7L113.61,93.6a2.94,2.94,0,0,1-2.67,4.18h-6.41a2.94,2.94,0,0,1,0-5.88h1.8L97.7,73.37,87.12,96.08A2.94,2.94,0,0,1,84.45,97.78Z"/><path class="cls-1" d="M120.45,98.19a3,3,0,0,1-3-2.94V74.84a2.95,2.95,0,0,1,5.89,0V95.25A2.94,2.94,0,0,1,120.45,98.19Z"/><circle class="cls-1" cx="120.44" cy="66.39" r="2.96"/><circle class="cls-1" cx="94.87" cy="94.85" r="2.95"/></svg>