<svg id="图层_1" data-name="图层 1" xmlns="http://www.w3.org/2000/svg" xmlns:xlink="http://www.w3.org/1999/xlink" viewBox="0 0 468.4 167.48"><defs><style>.cls-1{fill:#036eb8;}.cls-2{fill:url(#未命名的渐变_22);}.cls-3{fill:url(#未命名的渐变_22-2);}.cls-4{fill:#c30d23;}</style><linearGradient id="未命名的渐变_22" x1="112.25" y1="79.36" x2="112.25" y2="32.24" gradientUnits="userSpaceOnUse"><stop offset="0" stop-color="#2ea7e0"/><stop offset="1" stop-color="#172a88"/></linearGradient><linearGradient id="未命名的渐变_22-2" x1="143.48" y1="79.92" x2="143.48" y2="43.83" xlink:href="#未命名的渐变_22"/></defs><title>智优康赛logo</title><path class="cls-1" d="M166.08,114.78v3.42q6.81-1,9.57-4.34,2.78,3.15,8.58,4.15v-3.73a13.85,13.85,0,0,1-5.62-3.19h5.77v-3.15h-6.54a11.11,11.11,0,0,0,.08-1.43v-1.38h5.65v-1a2.18,2.18,0,0,0-2.18-2.18h-8a10.8,10.8,0,0,0,.57-1.77h-4.3a5.9,5.9,0,0,1-3.62,3.5V107a9.52,9.52,0,0,0,5-1.85h2v1.46a11.94,11.94,0,0,1-.08,1.35H166v3.15h5.81Q170.23,113.55,166.08,114.78Z"/><path class="cls-1" d="M195.08,118.39H169.47v16.22h27.79v-14A2.19,2.19,0,0,0,195.08,118.39Zm-3,12.73H174.65V128h17.42Zm0-6.31H174.65v-2.92h17.42Z"/><path class="cls-1" d="M197.15,102H185.46v14.37h13.87V104.2A2.17,2.17,0,0,0,197.15,102ZM194.6,113.2h-4.42v-8h4.42Z"/><path class="cls-1" d="M235.08,106.36a44,44,0,0,0-1.42-5.3h-4.81q.93,3.45,1.23,5.3Z"/><polygon class="cls-1" points="234.93 130.38 231.16 130.38 231.16 113.7 225.85 113.7 225.85 134.12 238.96 134.12 238.96 127 234.93 127 234.93 130.38"/><path class="cls-1" d="M238.39,111v-.8a2.86,2.86,0,0,0-2.86-2.85h-9.41v-7h-5.49v7h-6.08V111h6q-.47,11.73-6,18.92v5.34Q225,129.35,226,111Z"/><path class="cls-1" d="M210.83,100.44A17.32,17.32,0,0,1,204,110.78v4.38a18,18,0,0,0,3.85-1.53v21.56h5.34V108.55a22.47,22.47,0,0,0,2.88-8.11Z"/><path class="cls-1" d="M274.71,108h-9.38v-2.15h12v-.67a2.83,2.83,0,0,0-2.83-2.83h-9.21v-2.15h-6.61v2.15h-13.3v17a31.24,31.24,0,0,1-.5,6.38,14.55,14.55,0,0,1-1.8,4.57v5q7.68-3,7.65-15.69v-3h9.61v2h-8.58V122h8.58v9.68h-3.12v3.38h8.15v-6.84a33.49,33.49,0,0,0,11.57,6.08v-4.16a31.86,31.86,0,0,1-5-2.34h.46a16.91,16.91,0,0,0,1.58-5h-4.31a24.11,24.11,0,0,1-.76,3,35.19,35.19,0,0,1-3.58-3V122h9.38v-5.39h2.92v-3.34h-2.92Zm-14.41,0H252v3.35h8.35v1.92h-9.61v-7.42h9.61ZM270,118.66h-4.65v-2H270Zm0-5.38h-4.65v-1.92H270Z"/><path class="cls-1" d="M249.38,133.65A37.35,37.35,0,0,0,259.6,129v-4.23l-.65.35c-.82.46-1.43.79-1.84,1a18.69,18.69,0,0,1-.89-3.27h-4.3a16.92,16.92,0,0,0,1.57,5,37.52,37.52,0,0,1-4.11,1.54Z"/><path class="cls-1" d="M287.2,104.94h22.68v2.5h5.34v-2a3.52,3.52,0,0,0-3.51-3.52H302v-1.69h-6.65v1.69h-9.43a4.06,4.06,0,0,0-4.06,4.06v1.44h5.34Z"/><path class="cls-1" d="M308.88,119h6.57v-2.81h-8.76v-1.69h6.07V111.9h-6.07v-1.58h5.23v-2.57h-5.23V106H301.5v1.77h-5.84V106h-5.19v1.77h-5.19v2.57h5.19v1.58h-6v2.57h6v1.69h-8.76V119h6.49a23.61,23.61,0,0,1-6.84,3.07v3.54a29.76,29.76,0,0,0,6.11-1.69v5.53h5v-5.61H305v5.61h5V124a27.18,27.18,0,0,0,5.8,1.58V122A23.11,23.11,0,0,1,308.88,119Zm-13.22-8.65h5.84v1.58h-5.84Zm0,4.15h5.84v1.69h-5.84Zm-3.08,6.46a14.18,14.18,0,0,0,2.16-2h7.65a12.59,12.59,0,0,0,2.11,2Z"/><path class="cls-1" d="M301.54,125.81v-1.08h-5.8v1.08q.35,4.89-13,6v3.5q12.22-.39,16-4.23,4.31,3.65,15.69,4.23v-3.54Q301.19,130.43,301.54,125.81Z"/><path class="cls-1" d="M157.6,59.15c0-14.71,6.64-18.81,17.93-18.81a35.59,35.59,0,0,1,8.61.93,1,1,0,0,1,.72.94v6.12a1,1,0,0,1-1.24.93,24.18,24.18,0,0,0-6.82-.93c-6.44,0-9.2,2.42-9.2,10.82s2.76,10.74,9.4,10.74a23.74,23.74,0,0,0,6.94-.91,1,1,0,0,1,1.26.93v6a1,1,0,0,1-.67.92,33.24,33.24,0,0,1-9,1.17C164.24,78,157.6,73.85,157.6,59.15Z"/><path class="cls-1" d="M189.83,63.19c0-11.55,5.12-14.76,14-14.76s13.91,3.21,13.91,14.76S212.61,78,203.81,78,189.83,74.73,189.83,63.19Zm20.09,0c0-6.91-1.53-9.07-6.11-9.07s-6.12,2.16-6.12,9.07,1.53,9,6.12,9S209.92,70.15,209.92,63.19Z"/><path class="cls-1" d="M249.93,58V76.66a.76.76,0,0,1-.76.76h-6.11a.76.76,0,0,1-.77-.76V60c0-3.85-.9-5.32-4.64-5.32-3.12,0-5.16.92-6,3.78a1,1,0,0,0,0,.24v18a.77.77,0,0,1-.77.76h-6.11a.77.77,0,0,1-.77-.76V49.72a.78.78,0,0,1,.77-.77h6.11a.78.78,0,0,1,.77.77v.49a.76.76,0,0,0,1.26.58c1.74-1.6,4.41-2.36,7.65-2.36C247.56,48.43,249.93,51.69,249.93,58Z"/><path class="cls-1" d="M256,63.19c0-11.55,5.21-14.76,14.07-14.76a28,28,0,0,1,6.76.72.77.77,0,0,1,.57.74V54.7a.76.76,0,0,1-1,.73,18.56,18.56,0,0,0-5.35-.73c-5.06,0-7.22,1.9-7.22,8.49s2.16,8.43,7.38,8.43a18.53,18.53,0,0,0,5.45-.71.76.76,0,0,1,1,.73v4.67a.74.74,0,0,1-.52.72,26.24,26.24,0,0,1-7.07.92C261.21,78,256,74.73,256,63.19Z"/><path class="cls-1" d="M307.68,64.91,290.75,66a.78.78,0,0,0-.72.88c.53,3.48,2.91,5.08,7.61,5.08a25.48,25.48,0,0,0,8.4-1.53.76.76,0,0,1,1,.71v4.36a.74.74,0,0,1-.43.69A27.24,27.24,0,0,1,296.17,78c-8.7,0-13.87-3.22-13.87-14.76s5.17-14.76,14.08-14.76c9.91,0,12.18,5.16,12.18,12.49a30.31,30.31,0,0,1-.17,3.33A.77.77,0,0,1,307.68,64.91Zm-6.81-5a.77.77,0,0,0,.71-.8c-.13-2.76-1.08-4.9-5.2-4.9-4.37,0-6,1.78-6.38,5.64a.76.76,0,0,0,.82.83Z"/><path class="cls-1" d="M342.24,63.19c0,8.17-2.11,14.76-11.33,14.76-3.69,0-5.9-.82-7.27-2.19a.77.77,0,0,0-1.32.53V87.2a.78.78,0,0,1-.77.77h-6.11a.77.77,0,0,1-.77-.77V49.72a.77.77,0,0,1,.77-.77h6.11a.78.78,0,0,1,.77.77v.42a.76.76,0,0,0,1.27.57c1.41-1.32,3.71-2.28,7.32-2.28C340.13,48.43,342.24,54.12,342.24,63.19Zm-7.8,0c0-5.22-.79-9.07-6-9.07s-6.59,3.32-6.59,9.07c0,5.48,1.37,9,6.59,9S334.44,68.09,334.44,63.19Z"/><path class="cls-1" d="M357.45,55a.77.77,0,0,0-.76.77V67.67c0,3.32.58,4.11,3.27,4.11.51,0,1,0,1.42-.06a.76.76,0,0,1,.84.76V76.8a.76.76,0,0,1-.68.76,26.61,26.61,0,0,1-3,.18c-7,0-9.49-1.95-9.49-9.44V55.73a.77.77,0,0,0-.76-.77h-2.21a.76.76,0,0,1-.77-.76V49.72a.77.77,0,0,1,.77-.77h2.21a.76.76,0,0,0,.76-.76V43a.78.78,0,0,1,.77-.77h6.11a.78.78,0,0,1,.77.77v5.22a.76.76,0,0,0,.76.76h4.38a.77.77,0,0,1,.76.77V54.2a.76.76,0,0,1-.76.76Z"/><path class="cls-1" d="M366.12,76.22V71.48a.76.76,0,0,1,1-.74,31.4,31.4,0,0,0,7.64,1c3.32,0,4.74-.58,4.74-2.85s-.9-2.84-5.48-4c-6.12-1.42-7.54-3.27-7.54-8.07,0-5.32,3.11-8.48,11.39-8.48a29.62,29.62,0,0,1,7.22.76.76.76,0,0,1,.55.77l-.24,4.34a.76.76,0,0,1-.93.7,30.82,30.82,0,0,0-6.34-.83c-3.53,0-4.48.69-4.48,2.64,0,1.79.79,2.11,5.27,3.21,6.22,1.59,7.86,3.48,7.86,8.7,0,6.7-4.27,9-11.6,9a42.72,42.72,0,0,1-8.41-.77A.76.76,0,0,1,366.12,76.22Z"/><path class="cls-2" d="M94.07,79.36a4,4,0,0,1-1.7-.38,4,4,0,0,1-2-5.36l18.18-39.05a4,4,0,0,1,3.66-2.33h0a4.05,4.05,0,0,1,3.67,2.33l18.17,39.05a4,4,0,0,1-3.66,5.74h-8.8a4,4,0,1,1,0-8.08h2.47L112.25,45.85,97.74,77A4.05,4.05,0,0,1,94.07,79.36Z"/><path class="cls-3" d="M143.48,79.92a4,4,0,0,1-4-4v-28a4,4,0,0,1,8.08,0v28A4,4,0,0,1,143.48,79.92Z"/><circle class="cls-4" cx="143.46" cy="36.28" r="4.06"/><circle class="cls-4" cx="108.38" cy="75.34" r="4.05"/></svg>