<svg id="图层_1" data-name="图层 1" xmlns="http://www.w3.org/2000/svg" viewBox="0 0 468.4 167.48"><defs><style>.cls-1{fill:#231815;}</style></defs><title>智优康赛logo</title><path class="cls-1" d="M132.55,86.39c0-17.54,7.93-22.43,21.39-22.43a42.25,42.25,0,0,1,10.28,1.11,1.16,1.16,0,0,1,.86,1.12v7.3a1.15,1.15,0,0,1-1.49,1.11,28.55,28.55,0,0,0-8.13-1.1c-7.69,0-11,2.88-11,12.89s3.28,12.82,11.22,12.82A28,28,0,0,0,164,98.12a1.16,1.16,0,0,1,1.5,1.11v7.1a1.15,1.15,0,0,1-.8,1.1,39.7,39.7,0,0,1-10.74,1.39C140.48,108.82,132.55,103.94,132.55,86.39Z"/><path class="cls-1" d="M171,91.21c0-13.77,6.1-17.61,16.67-17.61s16.6,3.84,16.6,17.61-6.1,17.61-16.6,17.61S171,105,171,91.21Zm24,0c0-8.23-1.82-10.81-7.29-10.81s-7.3,2.58-7.3,10.81,1.83,10.7,7.3,10.7S195,99.52,195,91.21Z"/><path class="cls-1" d="M242.71,85v22.29a.91.91,0,0,1-.92.91H234.5a.91.91,0,0,1-.91-.91V87.38c0-4.59-1.07-6.35-5.54-6.35-3.72,0-6.16,1.1-7.19,4.51a.9.9,0,0,0,0,.28v21.46a.91.91,0,0,1-.91.91h-7.29a.91.91,0,0,1-.92-.91V75.15a.92.92,0,0,1,.92-.92h7.29a.92.92,0,0,1,.91.92v.59a.91.91,0,0,0,1.51.69c2.08-1.91,5.26-2.83,9.12-2.83C239.88,73.6,242.71,77.5,242.71,85Z"/><path class="cls-1" d="M249.94,91.21c0-13.77,6.23-17.61,16.79-17.61a33.48,33.48,0,0,1,8.07.87.91.91,0,0,1,.67.89v5.72a.91.91,0,0,1-1.16.88,22.27,22.27,0,0,0-6.38-.87c-6,0-8.62,2.26-8.62,10.12s2.58,10.07,8.8,10.07a22.14,22.14,0,0,0,6.5-.86.92.92,0,0,1,1.18.87v5.57a.9.9,0,0,1-.63.87,31.3,31.3,0,0,1-8.43,1.09C256.17,108.82,249.94,105,249.94,91.21Z"/><path class="cls-1" d="M311.59,93.27l-20.2,1.28a.92.92,0,0,0-.85,1c.63,4.16,3.47,6.06,9.08,6.06a30.41,30.41,0,0,0,10-1.82.91.91,0,0,1,1.24.85v5.2a.94.94,0,0,1-.51.83c-2.28,1.09-7.05,2.11-12.51,2.11-10.38,0-16.54-3.83-16.54-17.61s6.16-17.61,16.79-17.61c11.83,0,14.53,6.17,14.53,14.91a35.9,35.9,0,0,1-.2,4A.9.9,0,0,1,311.59,93.27Zm-8.12-6a.92.92,0,0,0,.85-1c-.15-3.29-1.29-5.84-6.21-5.84-5.21,0-7.2,2.12-7.61,6.73a.93.93,0,0,0,1,1Z"/><path class="cls-1" d="M352.83,91.21c0,9.75-2.52,17.61-13.52,17.61-4.4,0-7-1-8.68-2.6a.92.92,0,0,0-1.58.62v13a.91.91,0,0,1-.91.91h-7.29a.91.91,0,0,1-.91-.91V75.15a.91.91,0,0,1,.91-.92h7.29a.91.91,0,0,1,.91.92v.49a.91.91,0,0,0,1.52.69c1.69-1.58,4.43-2.73,8.74-2.73C350.31,73.6,352.83,80.4,352.83,91.21Zm-9.31,0c0-6.22-.94-10.81-7.11-10.81s-7.86,4-7.86,10.81c0,6.54,1.64,10.7,7.86,10.7S343.52,97.06,343.52,91.21Z"/><path class="cls-1" d="M371,81.4a.92.92,0,0,0-.91.92V96.56c0,4,.69,4.91,3.9,4.91.61,0,1.19,0,1.69-.08a.9.9,0,0,1,1,.91v5.15a.91.91,0,0,1-.81.91,32.08,32.08,0,0,1-3.59.21c-8.36,0-11.32-2.32-11.32-11.26v-15a.92.92,0,0,0-.91-.92h-2.64a.92.92,0,0,1-.92-.91V75.15a.92.92,0,0,1,.92-.92H360a.91.91,0,0,0,.91-.91V67.1a.92.92,0,0,1,.91-.92h7.29a.92.92,0,0,1,.92.92v6.22a.91.91,0,0,0,.91.91h5.22a.92.92,0,0,1,.91.92v5.34a.91.91,0,0,1-.91.91Z"/><path class="cls-1" d="M381.32,106.76V101.1a.91.91,0,0,1,1.13-.88,37.54,37.54,0,0,0,9.12,1.25c4,0,5.66-.7,5.66-3.4s-1.07-3.4-6.54-4.72c-7.3-1.7-9-3.9-9-9.62,0-6.35,3.71-10.13,13.59-10.13a35.42,35.42,0,0,1,8.62.91.92.92,0,0,1,.65.93l-.28,5.17a.91.91,0,0,1-1.12.84,36.35,36.35,0,0,0-7.56-1c-4.21,0-5.34.82-5.34,3.14,0,2.14.94,2.52,6.29,3.84,7.42,1.89,9.37,4.15,9.37,10.38,0,8-5.1,10.75-13.84,10.75a51.61,51.61,0,0,1-10-.91A.91.91,0,0,1,381.32,106.76Z"/><path class="cls-1" d="M56.77,110.51a4.75,4.75,0,0,1-2-.45,4.81,4.81,0,0,1-2.33-6.4L74.09,57.08a4.82,4.82,0,0,1,4.37-2.78h0a4.81,4.81,0,0,1,4.37,2.78l21.69,46.58a4.82,4.82,0,0,1-4.37,6.85H89.65a4.82,4.82,0,1,1,0-9.64h2.94L78.46,70.53l-17.32,37.2A4.81,4.81,0,0,1,56.77,110.51Z"/><path class="cls-1" d="M115.71,111.18a4.82,4.82,0,0,1-4.82-4.82V73a4.82,4.82,0,0,1,9.64,0v33.41A4.82,4.82,0,0,1,115.71,111.18Z"/><circle class="cls-1" cx="115.69" cy="59.11" r="4.85"/><circle class="cls-1" cx="73.84" cy="105.71" r="4.83"/></svg>