<svg id="图层_1" data-name="图层 1" xmlns="http://www.w3.org/2000/svg" xmlns:xlink="http://www.w3.org/1999/xlink" viewBox="0 0 468.4 167.48"><defs><style>.cls-1{fill:#036eb8;}.cls-2{fill:url(#未命名的渐变_22);}.cls-3{fill:url(#未命名的渐变_22-2);}.cls-4{fill:#c30d23;}</style><linearGradient id="未命名的渐变_22" x1="92.11" y1="97.78" x2="92.11" y2="63.45" gradientUnits="userSpaceOnUse"><stop offset="0" stop-color="#2ea7e0"/><stop offset="1" stop-color="#172a88"/></linearGradient><linearGradient id="未命名的渐变_22-2" x1="114.86" y1="98.19" x2="114.86" y2="71.9" xlink:href="#未命名的渐变_22"/></defs><title>智优康赛logo</title><path class="cls-1" d="M299.93,84.13v2.08q4.14-.58,5.83-2.64A8.65,8.65,0,0,0,311,86.1V83.83a8.37,8.37,0,0,1-3.41-2h3.5V80h-4a8.14,8.14,0,0,0,.05-.87v-.84h3.43v-.61a1.32,1.32,0,0,0-1.32-1.33h-4.87a7.6,7.6,0,0,0,.35-1.08h-2.62a3.6,3.6,0,0,1-2.2,2.13v2a5.82,5.82,0,0,0,3-1.12h1.21v.89a7.38,7.38,0,0,1,0,.82h-4.21v1.91h3.53A6,6,0,0,1,299.93,84.13Z"/><path class="cls-1" d="M317.57,86.33H302V96.2H318.9V87.66A1.32,1.32,0,0,0,317.57,86.33Zm-1.83,7.74H305.15V92.18h10.59Zm0-3.83H305.15V88.46h10.59Z"/><path class="cls-1" d="M318.84,76.36h-7.12v8.75h8.44V77.69A1.33,1.33,0,0,0,318.84,76.36Zm-1.55,6.81H314.6V78.31h2.69Z"/><path class="cls-1" d="M341.92,79a28.62,28.62,0,0,0-.87-3.23h-2.92c.37,1.4.62,2.48.74,3.23Z"/><polygon class="cls-1" points="341.82 93.63 339.53 93.63 339.53 83.47 336.3 83.47 336.3 95.89 344.28 95.89 344.28 91.57 341.82 91.57 341.82 93.63"/><path class="cls-1" d="M343.93,81.81v-.48a1.74,1.74,0,0,0-1.74-1.74h-5.72V75.34h-3.35v4.25h-3.69v2.22h3.62q-.29,7.14-3.65,11.51v3.25q6.39-3.57,7-14.76Z"/><path class="cls-1" d="M327.16,75.41A10.58,10.58,0,0,1,323,81.7v2.66a11,11,0,0,0,2.34-.93V96.55h3.25V80.34a13.7,13.7,0,0,0,1.75-4.93Z"/><path class="cls-1" d="M366,80h-5.71V78.7h7.28v-.4a1.72,1.72,0,0,0-1.72-1.72h-5.6V75.27h-4v1.31h-8.09V86.89a19.49,19.49,0,0,1-.3,3.88,9.06,9.06,0,0,1-1.1,2.79v3q4.68-1.83,4.65-9.55v-1.8h5.85v1.24H352v2h5.22v5.89h-1.9v2.06h5V92.32a20.37,20.37,0,0,0,7,3.69V93.49a19.88,19.88,0,0,1-3-1.43h.28a10.83,10.83,0,0,0,1-3H363a16.82,16.82,0,0,1-.47,1.8,21.13,21.13,0,0,1-2.18-1.8v-.51H366V85.25h1.78v-2H366Zm-8.77,0h-5.08v2h5.08v1.17h-5.85V78.7h5.85Zm5.89,6.48h-2.83V85.25h2.83Zm0-3.27h-2.83V82.05h2.83Z"/><path class="cls-1" d="M350.62,95.61a22.65,22.65,0,0,0,6.22-2.83V90.21l-.4.21c-.5.28-.87.49-1.12.61a10.39,10.39,0,0,1-.54-2h-2.62a10.21,10.21,0,0,0,1,3,21.23,21.23,0,0,1-2.5.93Z"/><path class="cls-1" d="M373.63,78.14h13.8v1.52h3.25v-1.2a2.14,2.14,0,0,0-2.14-2.14h-5.9v-1h-4.05v1h-5.74a2.47,2.47,0,0,0-2.47,2.47v.87h3.25Z"/><path class="cls-1" d="M386.82,86.68h4V85h-5.33v-1h3.69V82.38h-3.69v-1h3.18V79.85h-3.18V78.77h-3.16v1.08h-3.55V78.77h-3.16v1.08h-3.16v1.57h3.16v1H372v1.56h3.67v1h-5.33v1.71h3.95a14.37,14.37,0,0,1-4.16,1.87V90.7a17.49,17.49,0,0,0,3.71-1V93h3V89.63h7.62V93h3v-3.3a17.1,17.1,0,0,0,3.53,1V88.53A14.18,14.18,0,0,1,386.82,86.68Zm-8-5.26h3.55v1h-3.55Zm0,2.52h3.55v1h-3.55Zm-1.87,3.93a9.09,9.09,0,0,0,1.31-1.19h4.65a7.63,7.63,0,0,0,1.29,1.19Z"/><path class="cls-1" d="M382.36,90.84v-.65h-3.54v.65q.21,3-7.9,3.63V96.6q7.44-.24,9.73-2.58c1.74,1.48,4.93,2.34,9.54,2.58V94.44C384.83,93.91,382.21,92.71,382.36,90.84Z"/><path class="cls-1" d="M125.14,83.05c0-10.71,4.85-13.7,13.07-13.7a25.79,25.79,0,0,1,6.27.68.71.71,0,0,1,.53.69v4.45a.71.71,0,0,1-.91.68,17.45,17.45,0,0,0-5-.67c-4.7,0-6.71,1.76-6.71,7.87s2,7.83,6.85,7.83a17.27,17.27,0,0,0,5.06-.66.7.7,0,0,1,.91.67v4.34a.7.7,0,0,1-.48.67,24.39,24.39,0,0,1-6.56.85C130,96.75,125.14,93.77,125.14,83.05Z"/><path class="cls-1" d="M148.63,86c0-8.41,3.73-10.76,10.18-10.76S169,77.59,169,86s-3.73,10.75-10.14,10.75S148.63,94.41,148.63,86Zm14.63,0c0-5-1.11-6.61-4.45-6.61S154.35,81,154.35,86s1.12,6.53,4.46,6.53S163.26,91.07,163.26,86Z"/><path class="cls-1" d="M192.42,82.19V95.81a.56.56,0,0,1-.56.56h-4.45a.56.56,0,0,1-.56-.56V83.65c0-2.8-.66-3.88-3.38-3.88-2.28,0-3.77.68-4.4,2.76a1.11,1.11,0,0,0,0,.17V95.81a.56.56,0,0,1-.56.56H174a.56.56,0,0,1-.56-.56V76.18a.56.56,0,0,1,.56-.55h4.45a.56.56,0,0,1,.56.55v.36A.56.56,0,0,0,180,77a8.08,8.08,0,0,1,5.57-1.73C190.69,75.24,192.42,77.62,192.42,82.19Z"/><path class="cls-1" d="M196.83,86c0-8.41,3.81-10.76,10.26-10.76a20.6,20.6,0,0,1,4.93.53.57.57,0,0,1,.41.54v3.5a.55.55,0,0,1-.71.53,13.93,13.93,0,0,0-3.9-.53c-3.69,0-5.26,1.39-5.26,6.19s1.57,6.14,5.37,6.14a13.36,13.36,0,0,0,4-.52.56.56,0,0,1,.72.53v3.4a.56.56,0,0,1-.38.54,19.4,19.4,0,0,1-5.15.66C200.64,96.75,196.83,94.41,196.83,86Z"/><path class="cls-1" d="M234.49,87.25,222.15,88a.57.57,0,0,0-.52.64c.38,2.54,2.12,3.7,5.55,3.7a18.56,18.56,0,0,0,6.12-1.11.55.55,0,0,1,.75.52V95a.56.56,0,0,1-.31.5,19.88,19.88,0,0,1-7.64,1.29c-6.34,0-10.1-2.34-10.1-10.75s3.76-10.76,10.25-10.76c7.23,0,8.88,3.77,8.88,9.11a22.91,22.91,0,0,1-.12,2.42A.56.56,0,0,1,234.49,87.25Zm-5-3.67A.55.55,0,0,0,230,83c-.09-2-.79-3.57-3.79-3.57-3.18,0-4.4,1.3-4.64,4.11a.56.56,0,0,0,.6.6Z"/><path class="cls-1" d="M259.67,86c0,6-1.54,10.75-8.26,10.75-2.68,0-4.3-.59-5.3-1.59a.56.56,0,0,0-1,.38v7.95a.56.56,0,0,1-.56.56h-4.45a.56.56,0,0,1-.56-.56V76.18a.56.56,0,0,1,.56-.55h4.45a.56.56,0,0,1,.56.55v.31a.56.56,0,0,0,.93.42c1-1,2.7-1.67,5.33-1.67C258.13,75.24,259.67,79.39,259.67,86ZM254,86c0-3.81-.58-6.61-4.34-6.61s-4.81,2.42-4.81,6.61c0,4,1,6.53,4.81,6.53S254,89.57,254,86Z"/><path class="cls-1" d="M270.75,80a.56.56,0,0,0-.56.55v8.7c0,2.42.43,3,2.38,3a8.33,8.33,0,0,0,1-.05.56.56,0,0,1,.62.56v3.14a.56.56,0,0,1-.5.56,19.38,19.38,0,0,1-2.19.13c-5.11,0-6.92-1.42-6.92-6.88V80.56a.55.55,0,0,0-.55-.55h-1.62a.56.56,0,0,1-.55-.56V76.18a.55.55,0,0,1,.55-.55h1.62a.56.56,0,0,0,.55-.56v-3.8a.56.56,0,0,1,.56-.56h4.46a.56.56,0,0,1,.55.56v3.8a.56.56,0,0,0,.56.56h3.19a.55.55,0,0,1,.55.55v3.27a.55.55,0,0,1-.55.56Z"/><path class="cls-1" d="M277.07,95.49V92a.55.55,0,0,1,.69-.54,22.84,22.84,0,0,0,5.57.76c2.42,0,3.46-.42,3.46-2.08s-.66-2.07-4-2.88c-4.45-1-5.49-2.38-5.49-5.87,0-3.88,2.26-6.19,8.29-6.19a21.24,21.24,0,0,1,5.27.56.55.55,0,0,1,.4.56l-.17,3.16a.56.56,0,0,1-.69.51,22.69,22.69,0,0,0-4.61-.6c-2.58,0-3.27.5-3.27,1.92s.58,1.54,3.84,2.34c4.54,1.15,5.73,2.54,5.73,6.34,0,4.88-3.12,6.57-8.45,6.57a31.39,31.39,0,0,1-6.13-.56A.55.55,0,0,1,277.07,95.49Z"/><path class="cls-2" d="M78.86,97.78a3,3,0,0,1-1.24-.27A2.94,2.94,0,0,1,76.2,93.6L89.44,65.15a2.93,2.93,0,0,1,2.67-1.7h0a3,3,0,0,1,2.67,1.7L108,93.6a2.94,2.94,0,0,1-2.67,4.18H98.94a2.94,2.94,0,0,1,0-5.88h1.8L92.11,73.37,81.53,96.08A2.94,2.94,0,0,1,78.86,97.78Z"/><path class="cls-3" d="M114.86,98.19a3,3,0,0,1-3-2.94V74.84a2.95,2.95,0,0,1,5.89,0V95.25A2.94,2.94,0,0,1,114.86,98.19Z"/><circle class="cls-4" cx="114.84" cy="66.39" r="2.96"/><circle class="cls-4" cx="89.28" cy="94.85" r="2.95"/></svg>