<svg id="图层_1" data-name="图层 1" xmlns="http://www.w3.org/2000/svg" xmlns:xlink="http://www.w3.org/1999/xlink" viewBox="0 0 468.4 167.48"><defs><style>.cls-1{fill:#036eb8;}.cls-2{fill:url(#未命名的渐变_22);}.cls-3{fill:url(#未命名的渐变_22-2);}.cls-4{fill:#c30d23;}</style><linearGradient id="未命名的渐变_22" x1="125.95" y1="120.85" x2="125.95" y2="48.6" gradientUnits="userSpaceOnUse"><stop offset="0" stop-color="#2ea7e0"/><stop offset="1" stop-color="#172a88"/></linearGradient><linearGradient id="未命名的渐变_22-2" x1="173.82" y1="121.71" x2="173.82" y2="66.38" xlink:href="#未命名的渐变_22"/></defs><title>智优康赛logo</title><path class="cls-1" d="M192,64.63v3.86q7.68-1.08,10.79-4.9,3.12,3.55,9.66,4.68v-4.2a15.56,15.56,0,0,1-6.32-3.6h6.5V56.92H205.3a13.91,13.91,0,0,0,.09-1.6V53.76h6.37V52.62a2.46,2.46,0,0,0-2.46-2.46h-9a12.22,12.22,0,0,0,.65-2h-4.85A6.65,6.65,0,0,1,192,52.11v3.73a10.79,10.79,0,0,0,5.63-2.08h2.25V55.4a12.57,12.57,0,0,1-.08,1.52H192v3.55h6.54Q196.73,63.25,192,64.63Z"/><path class="cls-1" d="M224.72,68.7H195.86V87h31.32V71.16A2.46,2.46,0,0,0,224.72,68.7ZM221.33,83H201.7V79.53h19.63Zm0-7.1H201.7V72.65h19.63Z"/><path class="cls-1" d="M227.06,50.25H213.88v16.2h15.64V52.71A2.46,2.46,0,0,0,227.06,50.25Zm-2.87,12.6h-5v-9h5Z"/><path class="cls-1" d="M269.81,55.14a51.11,51.11,0,0,0-1.6-6h-5.42c.69,2.6,1.15,4.6,1.39,6Z"/><polygon class="cls-1" points="269.63 82.22 265.39 82.22 265.39 63.42 259.41 63.42 259.41 86.42 274.18 86.42 274.18 78.41 269.63 78.41 269.63 82.22"/><path class="cls-1" d="M273.53,60.34v-.9a3.21,3.21,0,0,0-3.21-3.21H259.71V48.34h-6.19v7.89h-6.85v4.11h6.72q-.52,13.22-6.76,21.32v6q11.84-6.63,12.95-27.34Z"/><path class="cls-1" d="M242.47,48.47a19.51,19.51,0,0,1-7.67,11.66v4.93a20.58,20.58,0,0,0,4.34-1.73V87.64h6v-30a25.43,25.43,0,0,0,3.25-9.14Z"/><path class="cls-1" d="M314.47,57H303.9V54.58h13.48v-.75a3.19,3.19,0,0,0-3.19-3.19H303.82V48.21h-7.45v2.43h-15v19.1a35.28,35.28,0,0,1-.57,7.19,16.17,16.17,0,0,1-2,5.16v5.63q8.66-3.37,8.62-17.67V66.71h10.83V69h-9.66v3.77h9.66V83.69h-3.51V87.5h9.18V79.79a37.72,37.72,0,0,0,13,6.85V82a37.32,37.32,0,0,1-5.59-2.64h.52a19,19,0,0,0,1.78-5.59H308.8a26.08,26.08,0,0,1-.87,3.33,40,40,0,0,1-4-3.33v-1h10.57V66.71h3.3V62.94h-3.3Zm-16.24,0h-9.4v3.77h9.4v2.16H287.4V54.58h10.83Zm10.92,12H303.9v-2.3h5.25Zm0-6.07H303.9V60.78h5.25Z"/><path class="cls-1" d="M285.92,85.9a42.13,42.13,0,0,0,11.53-5.24V75.9c-.18.08-.42.21-.74.38-.92.53-1.62.9-2.08,1.13a20.89,20.89,0,0,1-1-3.68h-4.86a19.34,19.34,0,0,0,1.78,5.59,40.46,40.46,0,0,1-4.64,1.73Z"/><path class="cls-1" d="M328.55,53.54h25.57v2.82h6V54.12a4,4,0,0,0-4-4H345.23V48.25h-7.49v1.91H327.1a4.58,4.58,0,0,0-4.57,4.57v1.63h6Z"/><path class="cls-1" d="M353,69.35h7.41V66.19h-9.88V64.28h6.84v-2.9h-6.84V59.61h5.89V56.7h-5.89v-2h-5.85v2h-6.58v-2h-5.85v2h-5.85v2.91h5.85v1.77h-6.81v2.9h6.81v1.91h-9.88v3.16h7.32A26.81,26.81,0,0,1,322,72.82v4a34.12,34.12,0,0,0,6.89-1.91v6.24h5.63V74.81h14.12v6.33h5.63V75a31.66,31.66,0,0,0,6.55,1.78v-4A25.89,25.89,0,0,1,353,69.35Zm-14.9-9.74h6.58v1.77h-6.58Zm0,4.67h6.58v1.91h-6.58Zm-3.47,7.28a15.72,15.72,0,0,0,2.43-2.21h8.62a13.78,13.78,0,0,0,2.38,2.21Z"/><path class="cls-1" d="M344.71,77.06V75.85h-6.54v1.21q.39,5.5-14.64,6.72v3.94q13.77-.43,18-4.76,4.86,4.11,17.68,4.76v-4Q344.32,82.26,344.71,77.06Z"/><path class="cls-1" d="M190.57,106.21c0-11,5-14,13.37-14a26.47,26.47,0,0,1,6.43.69.72.72,0,0,1,.53.7v4.57a.72.72,0,0,1-.92.69,18,18,0,0,0-5.09-.69c-4.8,0-6.86,1.8-6.86,8.06s2.06,8,7,8a17.71,17.71,0,0,0,5.18-.68.71.71,0,0,1,.93.69v4.44a.72.72,0,0,1-.49.69,25.07,25.07,0,0,1-6.72.87C195.53,120.24,190.57,117.18,190.57,106.21Z"/><path class="cls-1" d="M214.61,109.23c0-8.61,3.82-11,10.42-11s10.39,2.4,10.39,11-3.82,11-10.39,11S214.61,117.84,214.61,109.23Zm15,0c0-5.15-1.14-6.77-4.57-6.77s-4.56,1.62-4.56,6.77,1.14,6.68,4.56,6.68S229.6,114.42,229.6,109.23Z"/><path class="cls-1" d="M259.44,105.33v13.94a.57.57,0,0,1-.57.57h-4.56a.56.56,0,0,1-.57-.57V106.83c0-2.87-.67-4-3.46-4-2.33,0-3.85.69-4.5,2.82a.52.52,0,0,0,0,.17v13.42a.57.57,0,0,1-.58.57h-4.55a.57.57,0,0,1-.58-.57V99.18a.58.58,0,0,1,.58-.57h4.55a.58.58,0,0,1,.58.57v.37a.57.57,0,0,0,.94.43,8.31,8.31,0,0,1,5.7-1.76C257.67,98.22,259.44,100.65,259.44,105.33Z"/><path class="cls-1" d="M264,109.23c0-8.61,3.89-11,10.5-11a20.9,20.9,0,0,1,5,.54.58.58,0,0,1,.43.55v3.58a.57.57,0,0,1-.73.55,13.85,13.85,0,0,0-4-.54c-3.78,0-5.39,1.41-5.39,6.33s1.61,6.29,5.5,6.29a13.66,13.66,0,0,0,4.07-.54.57.57,0,0,1,.73.55V119a.55.55,0,0,1-.39.54,19.35,19.35,0,0,1-5.27.69C267.85,120.24,264,117.84,264,109.23Z"/><path class="cls-1" d="M302.51,110.51l-12.63.8a.57.57,0,0,0-.53.65c.39,2.6,2.16,3.79,5.67,3.79a18.8,18.8,0,0,0,6.27-1.14.57.57,0,0,1,.77.54v3.25a.55.55,0,0,1-.32.51,20.22,20.22,0,0,1-7.82,1.33c-6.48,0-10.34-2.4-10.34-11s3.86-11,10.5-11c7.39,0,9.08,3.85,9.08,9.32A21.49,21.49,0,0,1,303,110,.56.56,0,0,1,302.51,110.51Zm-5.08-3.76a.57.57,0,0,0,.53-.59c-.09-2.06-.81-3.66-3.88-3.66-3.26,0-4.5,1.33-4.76,4.21a.58.58,0,0,0,.62.62Z"/><path class="cls-1" d="M328.29,109.23c0,6.09-1.57,11-8.45,11-2.75,0-4.41-.61-5.43-1.63a.57.57,0,0,0-1,.39v8.14a.58.58,0,0,1-.58.57H308.3a.58.58,0,0,1-.58-.57v-28a.58.58,0,0,1,.58-.57h4.55a.58.58,0,0,1,.58.57v.31a.56.56,0,0,0,.94.43c1.06-1,2.77-1.7,5.47-1.7C326.72,98.22,328.29,102.46,328.29,109.23Zm-5.82,0c0-3.9-.59-6.77-4.44-6.77s-4.92,2.48-4.92,6.77c0,4.09,1,6.68,4.92,6.68S322.47,112.88,322.47,109.23Z"/><path class="cls-1" d="M339.63,103.09a.58.58,0,0,0-.57.57v8.91c0,2.48.43,3.07,2.44,3.07.38,0,.74,0,1.06,0a.57.57,0,0,1,.63.57v3.22a.58.58,0,0,1-.51.57,20.29,20.29,0,0,1-2.24.13c-5.23,0-7.08-1.46-7.08-7v-9.38a.58.58,0,0,0-.57-.57h-1.65a.56.56,0,0,1-.57-.57V99.18a.57.57,0,0,1,.57-.57h1.65a.58.58,0,0,0,.57-.57V94.15a.57.57,0,0,1,.57-.57h4.56a.56.56,0,0,1,.57.57V98a.58.58,0,0,0,.57.57h3.26a.58.58,0,0,1,.58.57v3.34a.57.57,0,0,1-.58.57Z"/><path class="cls-1" d="M346.1,119v-3.54a.57.57,0,0,1,.71-.55,23.42,23.42,0,0,0,5.7.78c2.48,0,3.54-.44,3.54-2.13s-.67-2.12-4.09-3c-4.56-1.06-5.62-2.43-5.62-6,0-4,2.32-6.33,8.49-6.33a22.25,22.25,0,0,1,5.39.56.59.59,0,0,1,.41.58l-.18,3.24a.57.57,0,0,1-.7.52,23,23,0,0,0-4.72-.62c-2.64,0-3.35.51-3.35,2s.59,1.57,3.94,2.4c4.64,1.18,5.85,2.59,5.85,6.49,0,5-3.18,6.72-8.65,6.72a32.14,32.14,0,0,1-6.27-.57A.58.58,0,0,1,346.1,119Z"/><path class="cls-2" d="M98.07,120.85a6.11,6.11,0,0,1-2.61-.58,6.2,6.2,0,0,1-3-8.23l27.87-59.86A6.21,6.21,0,0,1,126,48.6h0a6.18,6.18,0,0,1,5.61,3.58L159.43,112a6.19,6.19,0,0,1-5.61,8.81h-13.5a6.2,6.2,0,0,1,0-12.39h3.78L126,69.47l-22.26,47.8A6.18,6.18,0,0,1,98.07,120.85Z"/><path class="cls-3" d="M173.82,121.71a6.2,6.2,0,0,1-6.2-6.19V72.57a6.2,6.2,0,0,1,12.39,0v43A6.19,6.19,0,0,1,173.82,121.71Z"/><circle class="cls-4" cx="173.8" cy="54.8" r="6.23"/><circle class="cls-4" cx="120" cy="114.68" r="6.21"/></svg>