<svg id="图层_1" data-name="图层 1" xmlns="http://www.w3.org/2000/svg" xmlns:xlink="http://www.w3.org/1999/xlink" viewBox="0 0 468.4 167.48"><defs><style>.cls-1{fill:#036eb8;}.cls-2{fill:url(#未命名的渐变_22);}.cls-3{fill:url(#未命名的渐变_22-2);}.cls-4{fill:#c30d23;}</style><linearGradient id="未命名的渐变_22" x1="113.52" y1="122.23" x2="113.52" y2="51.1" gradientUnits="userSpaceOnUse"><stop offset="0" stop-color="#2ea7e0"/><stop offset="1" stop-color="#172a88"/></linearGradient><linearGradient id="未命名的渐变_22-2" x1="160.65" y1="123.07" x2="160.65" y2="68.6" xlink:href="#未命名的渐变_22"/></defs><title>智优康赛logo</title><path class="cls-1" d="M183.33,61.09v2.36q4.71-.66,6.61-3a9.84,9.84,0,0,0,5.92,2.87V60.74a9.55,9.55,0,0,1-3.87-2.2h4V56.36h-4.51c0-.32,0-.64,0-1v-1h3.9v-.69a1.51,1.51,0,0,0-1.51-1.51h-5.52a7,7,0,0,0,.39-1.22h-3a4,4,0,0,1-2.49,2.41V55.7a6.62,6.62,0,0,0,3.45-1.28h1.38v1a7,7,0,0,1-.06.93h-4.77v2.18h4A6.89,6.89,0,0,1,183.33,61.09Z"/><path class="cls-1" d="M203.35,63.58H185.67v11.2h19.19V65.09A1.51,1.51,0,0,0,203.35,63.58Zm-2.07,8.79h-12V70.22h12Zm0-4.36h-12V66h12Z"/><path class="cls-1" d="M204.79,52.27h-8.08V62.2h9.58V53.78A1.51,1.51,0,0,0,204.79,52.27ZM203,60H200V54.48H203Z"/><path class="cls-1" d="M231,55.27a31.47,31.47,0,0,0-1-3.66h-3.32c.42,1.59.71,2.81.85,3.66Z"/><polygon class="cls-1" points="230.87 71.86 228.27 71.86 228.27 60.34 224.61 60.34 224.61 74.44 233.66 74.44 233.66 69.53 230.87 69.53 230.87 71.86"/><path class="cls-1" d="M233.26,58.46v-.55a2,2,0,0,0-2-2h-6.5V51.11H221v4.83h-4.2v2.52h4.12q-.31,8.1-4.14,13.06v3.69q7.25-4.06,7.93-16.75Z"/><path class="cls-1" d="M214.23,51.18a12,12,0,0,1-4.7,7.15v3a12.52,12.52,0,0,0,2.66-1.06V75.18h3.69V56.79a15.82,15.82,0,0,0,2-5.61Z"/><path class="cls-1" d="M258.34,56.41h-6.47V54.93h8.25v-.46a2,2,0,0,0-1.95-2h-6.35V51h-4.57v1.48h-9.18V64.22a21.79,21.79,0,0,1-.35,4.4,9.88,9.88,0,0,1-1.25,3.16v3.45q5.31-2.07,5.29-10.83v-2h6.63v1.41h-5.92v2.31h5.92v6.68h-2.15V75.1h5.63V70.38a23.15,23.15,0,0,0,8,4.19V71.7a23,23,0,0,1-3.43-1.62h.32a11.56,11.56,0,0,0,1.09-3.42h-3a16,16,0,0,1-.53,2,23.14,23.14,0,0,1-2.47-2v-.58h6.47V62.36h2V60.05h-2Zm-9.95,0h-5.76v2.31h5.76v1.33h-6.63V54.93h6.63Zm6.69,7.36h-3.21V62.36h3.21Zm0-3.72h-3.21V58.72h3.21Z"/><path class="cls-1" d="M240.85,74.12a26,26,0,0,0,7.06-3.21V68l-.45.24c-.56.32-1,.55-1.27.69a12.29,12.29,0,0,1-.61-2.26h-3a11.85,11.85,0,0,0,1.09,3.42,24.32,24.32,0,0,1-2.84,1.07Z"/><path class="cls-1" d="M267,54.29h15.66V56h3.69V54.65a2.42,2.42,0,0,0-2.42-2.43h-6.71V51.05H272.6v1.17h-6.52a2.8,2.8,0,0,0-2.8,2.8v1H267Z"/><path class="cls-1" d="M281.94,64h4.54V62h-6.05V60.87h4.19V59.1h-4.19V58H284V56.23h-3.61V55h-3.58v1.22h-4V55h-3.58v1.22h-3.59V58h3.59V59.1h-4.17v1.77h4.17V62h-6.05V64h4.48a16.47,16.47,0,0,1-4.72,2.12v2.45a21.29,21.29,0,0,0,4.22-1.17V71.2h3.45V67.32h8.65V71.2h3.45V67.46a19.8,19.8,0,0,0,4,1.09V66.08A16.09,16.09,0,0,1,281.94,64Zm-9.13-6h4V59.1h-4Zm0,2.86h4V62h-4Zm-2.12,4.46A9.87,9.87,0,0,0,272.17,64h5.29a8.86,8.86,0,0,0,1.46,1.35Z"/><path class="cls-1" d="M276.87,68.7V68h-4v.74q.24,3.38-9,4.12v2.41q8.44-.26,11-2.92,3,2.52,10.83,2.92V72.79Q276.64,71.89,276.87,68.7Z"/><path class="cls-1" d="M176.83,102.29c0-14.7,6.65-18.8,17.93-18.8a35.1,35.1,0,0,1,8.61.93,1,1,0,0,1,.72.94v6.12a1,1,0,0,1-1.24.93,23.73,23.73,0,0,0-6.82-.93c-6.44,0-9.2,2.42-9.2,10.81S189.59,113,196.24,113a23.39,23.39,0,0,0,6.93-.92,1,1,0,0,1,1.26.93v6a1,1,0,0,1-.67.93,33.26,33.26,0,0,1-9,1.16C183.48,121.09,176.83,117,176.83,102.29Z"/><path class="cls-1" d="M209.07,106.33c0-11.54,5.11-14.76,14-14.76S237,94.79,237,106.33s-5.12,14.76-13.92,14.76S209.07,117.88,209.07,106.33Zm20.08,0c0-6.9-1.53-9.06-6.11-9.06s-6.12,2.16-6.12,9.06,1.53,9,6.12,9S229.15,113.29,229.15,106.33Z"/><path class="cls-1" d="M269.17,101.11V119.8a.78.78,0,0,1-.77.77h-6.11a.77.77,0,0,1-.77-.77V103.12c0-3.85-.9-5.33-4.64-5.33-3.12,0-5.16.93-6,3.79a.85.85,0,0,0,0,.23v18a.77.77,0,0,1-.77.77h-6.11a.78.78,0,0,1-.77-.77V92.86a.77.77,0,0,1,.77-.76h6.11a.76.76,0,0,1,.77.76v.5a.76.76,0,0,0,1.26.58c1.75-1.6,4.41-2.37,7.65-2.37C266.79,91.57,269.17,94.84,269.17,101.11Z"/><path class="cls-1" d="M275.23,106.33c0-11.54,5.22-14.76,14.07-14.76a28.1,28.1,0,0,1,6.77.73.76.76,0,0,1,.56.74v4.8a.76.76,0,0,1-1,.73,18.92,18.92,0,0,0-5.35-.72c-5.06,0-7.22,1.89-7.22,8.48s2.16,8.44,7.38,8.44a18.54,18.54,0,0,0,5.45-.72.77.77,0,0,1,1,.73v4.67a.76.76,0,0,1-.53.73,26.26,26.26,0,0,1-7.07.91C280.45,121.09,275.23,117.88,275.23,106.33Z"/><path class="cls-1" d="M326.91,108.06,310,109.13a.77.77,0,0,0-.72.87c.53,3.49,2.91,5.08,7.61,5.08a25.22,25.22,0,0,0,8.4-1.53.77.77,0,0,1,1,.72v4.36a.76.76,0,0,1-.43.69c-1.91.92-5.9,1.77-10.48,1.77-8.7,0-13.87-3.21-13.87-14.76s5.17-14.76,14.08-14.76c9.91,0,12.18,5.17,12.18,12.5a30,30,0,0,1-.17,3.32A.75.75,0,0,1,326.91,108.06Zm-6.81-5a.77.77,0,0,0,.71-.8c-.13-2.76-1.08-4.9-5.2-4.9-4.37,0-6,1.78-6.38,5.64a.78.78,0,0,0,.83.83Z"/><path class="cls-1" d="M361.47,106.33c0,8.17-2.1,14.76-11.33,14.76-3.69,0-5.9-.81-7.27-2.18a.76.76,0,0,0-1.32.52v10.92a.77.77,0,0,1-.77.76h-6.11a.77.77,0,0,1-.77-.76V92.86a.77.77,0,0,1,.77-.76h6.11a.77.77,0,0,1,.77.76v.42a.76.76,0,0,0,1.27.58c1.41-1.33,3.71-2.29,7.32-2.29C359.37,91.57,361.47,97.27,361.47,106.33Zm-7.8,0c0-5.22-.79-9.06-5.95-9.06s-6.59,3.32-6.59,9.06c0,5.49,1.37,9,6.59,9S353.67,111.24,353.67,106.33Z"/><path class="cls-1" d="M376.68,98.11a.76.76,0,0,0-.76.77v11.93c0,3.33.58,4.12,3.27,4.12a12.49,12.49,0,0,0,1.42-.07.77.77,0,0,1,.84.76V120a.77.77,0,0,1-.68.76,26.51,26.51,0,0,1-3,.17c-7,0-9.49-1.95-9.49-9.43V98.88a.76.76,0,0,0-.76-.77H365.3a.76.76,0,0,1-.77-.77V92.86a.76.76,0,0,1,.77-.76h2.21a.76.76,0,0,0,.76-.77V86.12a.77.77,0,0,1,.77-.77h6.11a.76.76,0,0,1,.77.77v5.21a.76.76,0,0,0,.76.77h4.38a.76.76,0,0,1,.76.76v4.48a.76.76,0,0,1-.76.77Z"/><path class="cls-1" d="M385.35,119.37v-4.75a.77.77,0,0,1,1-.74,31.43,31.43,0,0,0,7.64,1.05c3.32,0,4.74-.58,4.74-2.85s-.89-2.85-5.48-4c-6.12-1.43-7.54-3.27-7.54-8.07,0-5.32,3.11-8.49,11.39-8.49a29.77,29.77,0,0,1,7.23.76.76.76,0,0,1,.54.78l-.24,4.33a.76.76,0,0,1-.93.71,30.82,30.82,0,0,0-6.34-.83c-3.53,0-4.48.68-4.48,2.63,0,1.8.79,2.11,5.27,3.22,6.22,1.58,7.86,3.48,7.86,8.7,0,6.69-4.27,9-11.6,9a43.54,43.54,0,0,1-8.41-.76A.76.76,0,0,1,385.35,119.37Z"/><path class="cls-2" d="M86.08,122.23a6,6,0,0,1-2.57-.58,6.09,6.09,0,0,1-3-8.1L108,54.62a6.1,6.1,0,0,1,5.53-3.52h0a6.1,6.1,0,0,1,5.53,3.52l27.43,58.93a6.09,6.09,0,0,1-5.52,8.67H127.67a6.1,6.1,0,1,1,0-12.19h3.72L113.52,71.64,91.61,118.7A6.12,6.12,0,0,1,86.08,122.23Z"/><path class="cls-3" d="M160.65,123.07a6.1,6.1,0,0,1-6.1-6.1V74.7a6.1,6.1,0,1,1,12.19,0V117A6.1,6.1,0,0,1,160.65,123.07Z"/><circle class="cls-4" cx="160.62" cy="57.19" r="6.14"/><circle class="cls-4" cx="107.67" cy="116.15" r="6.12"/></svg>