<svg id="图层_1" data-name="图层 1" xmlns="http://www.w3.org/2000/svg" viewBox="0 0 468.4 167.48"><defs><style>.cls-1{fill:#fff;}</style></defs><title>智优康赛logo</title><path class="cls-1" d="M140.07,86.39C140.07,68.85,148,64,161.46,64a42.22,42.22,0,0,1,10.27,1.11,1.16,1.16,0,0,1,.86,1.12v7.3a1.15,1.15,0,0,1-1.48,1.11A28.65,28.65,0,0,0,163,73.5c-7.69,0-11,2.88-11,12.89s3.29,12.82,11.22,12.82a28,28,0,0,0,8.27-1.09,1.16,1.16,0,0,1,1.5,1.11v7.1a1.14,1.14,0,0,1-.79,1.1,39.75,39.75,0,0,1-10.74,1.39C148,108.82,140.07,103.94,140.07,86.39Z"/><path class="cls-1" d="M178.53,91.21c0-13.77,6.1-17.61,16.66-17.61s16.61,3.84,16.61,17.61-6.11,17.61-16.61,17.61S178.53,105,178.53,91.21Zm24,0c0-8.23-1.83-10.81-7.3-10.81S187.9,83,187.9,91.21s1.82,10.7,7.29,10.7S202.49,99.52,202.49,91.21Z"/><path class="cls-1" d="M250.22,85v22.29a.91.91,0,0,1-.91.91H242a.91.91,0,0,1-.91-.91V87.38c0-4.59-1.07-6.35-5.53-6.35-3.73,0-6.16,1.1-7.2,4.51a1.35,1.35,0,0,0,0,.28v21.46a.91.91,0,0,1-.91.91h-7.29a.91.91,0,0,1-.92-.91V75.15a.92.92,0,0,1,.92-.92h7.29a.92.92,0,0,1,.91.92v.59a.91.91,0,0,0,1.51.69c2.08-1.91,5.26-2.83,9.12-2.83C247.39,73.6,250.22,77.5,250.22,85Z"/><path class="cls-1" d="M257.45,91.21c0-13.77,6.23-17.61,16.79-17.61a33.42,33.42,0,0,1,8.07.87.92.92,0,0,1,.68.89v5.72a.92.92,0,0,1-1.17.88,22.27,22.27,0,0,0-6.38-.87c-6,0-8.62,2.26-8.62,10.12s2.58,10.07,8.81,10.07a22.11,22.11,0,0,0,6.49-.86.92.92,0,0,1,1.18.87v5.57a.91.91,0,0,1-.62.87,31.37,31.37,0,0,1-8.44,1.09C263.68,108.82,257.45,105,257.45,91.21Z"/><path class="cls-1" d="M319.11,93.27l-20.2,1.28a.92.92,0,0,0-.85,1c.62,4.16,3.46,6.06,9.08,6.06a30.41,30.41,0,0,0,10-1.82.9.9,0,0,1,1.23.85v5.2a.92.92,0,0,1-.51.83c-2.28,1.09-7,2.11-12.51,2.11-10.37,0-16.54-3.83-16.54-17.61S295,73.6,305.63,73.6c11.82,0,14.52,6.17,14.52,14.91a33.6,33.6,0,0,1-.2,4A.9.9,0,0,1,319.11,93.27Zm-8.12-6a.91.91,0,0,0,.84-1c-.15-3.29-1.29-5.84-6.2-5.84-5.21,0-7.21,2.12-7.61,6.73a.92.92,0,0,0,1,1Z"/><path class="cls-1" d="M360.34,91.21c0,9.75-2.51,17.61-13.52,17.61-4.4,0-7-1-8.68-2.6a.91.91,0,0,0-1.57.62v13a.92.92,0,0,1-.92.91h-7.29a.91.91,0,0,1-.91-.91V75.15a.92.92,0,0,1,.91-.92h7.29a.92.92,0,0,1,.92.92v.49a.91.91,0,0,0,1.51.69c1.69-1.58,4.43-2.73,8.74-2.73C357.83,73.6,360.34,80.4,360.34,91.21Zm-9.31,0c0-6.22-.94-10.81-7.1-10.81s-7.87,4-7.87,10.81c0,6.54,1.64,10.7,7.87,10.7S351,97.06,351,91.21Z"/><path class="cls-1" d="M378.49,81.4a.92.92,0,0,0-.92.92V96.56c0,4,.69,4.91,3.9,4.91.62,0,1.19,0,1.7-.08a.91.91,0,0,1,1,.91v5.15a.91.91,0,0,1-.82.91,32.08,32.08,0,0,1-3.59.21c-8.36,0-11.32-2.32-11.32-11.26v-15a.92.92,0,0,0-.91-.92H364.9a.91.91,0,0,1-.91-.91V75.15a.92.92,0,0,1,.91-.92h2.64a.91.91,0,0,0,.91-.91V67.1a.92.92,0,0,1,.92-.92h7.29a.92.92,0,0,1,.91.92v6.22a.92.92,0,0,0,.92.91h5.21a.92.92,0,0,1,.92.92v5.34a.92.92,0,0,1-.92.91Z"/><path class="cls-1" d="M388.83,106.76V101.1a.91.91,0,0,1,1.14-.88,37.39,37.39,0,0,0,9.11,1.25c4,0,5.66-.7,5.66-3.4s-1.07-3.4-6.54-4.72c-7.3-1.7-9-3.9-9-9.62,0-6.35,3.71-10.13,13.58-10.13a35.36,35.36,0,0,1,8.62.91.92.92,0,0,1,.65.93l-.28,5.17a.91.91,0,0,1-1.12.84,36.35,36.35,0,0,0-7.56-1c-4.21,0-5.34.82-5.34,3.14,0,2.14.94,2.52,6.29,3.84,7.42,1.89,9.37,4.15,9.37,10.38,0,8-5.1,10.75-13.84,10.75a51.5,51.5,0,0,1-10-.91A.92.92,0,0,1,388.83,106.76Z"/><path class="cls-1" d="M64.29,110.51a4.69,4.69,0,0,1-2-.45,4.81,4.81,0,0,1-2.34-6.4L81.61,57.08A4.81,4.81,0,0,1,86,54.3h0a4.8,4.8,0,0,1,4.36,2.78L112,103.66a4.82,4.82,0,0,1-4.37,6.85H97.16a4.82,4.82,0,1,1,0-9.64h2.94L86,70.53l-17.32,37.2A4.83,4.83,0,0,1,64.29,110.51Z"/><path class="cls-1" d="M123.22,111.18a4.82,4.82,0,0,1-4.82-4.82V73A4.82,4.82,0,1,1,128,73v33.41A4.82,4.82,0,0,1,123.22,111.18Z"/><circle class="cls-1" cx="123.2" cy="59.11" r="4.85"/><circle class="cls-1" cx="81.35" cy="105.71" r="4.83"/></svg>