<svg id="图层_1" data-name="图层 1" xmlns="http://www.w3.org/2000/svg" viewBox="0 0 468.4 167.48"><defs><style>.cls-1{fill:#231815;}</style></defs><title>智优康赛logo</title><path class="cls-1" d="M166.58,61.09v2.36q4.69-.66,6.61-3a9.81,9.81,0,0,0,5.92,2.87V60.74a9.66,9.66,0,0,1-3.88-2.2h4V56.36H174.7a7.84,7.84,0,0,0,.05-1v-1h3.91v-.69a1.52,1.52,0,0,0-1.51-1.51h-5.53A7.93,7.93,0,0,0,172,51h-3a4,4,0,0,1-2.5,2.41V55.7A6.56,6.56,0,0,0,170,54.42h1.38v1a7.06,7.06,0,0,1,0,.93h-4.78v2.18h4A6.89,6.89,0,0,1,166.58,61.09Z"/><path class="cls-1" d="M186.6,63.58H168.92v11.2h19.19V65.09A1.52,1.52,0,0,0,186.6,63.58Zm-2.08,8.79h-12V70.22h12Zm0-4.36h-12V66h12Z"/><path class="cls-1" d="M188,52.27H180V62.2h9.58V53.78A1.52,1.52,0,0,0,188,52.27ZM186.27,60h-3.05V54.48h3.05Z"/><path class="cls-1" d="M214.23,55.27a31.46,31.46,0,0,0-1-3.66h-3.32c.43,1.59.71,2.81.85,3.66Z"/><polygon class="cls-1" points="214.12 71.86 211.52 71.86 211.52 60.34 207.85 60.34 207.85 74.44 216.91 74.44 216.91 69.53 214.12 69.53 214.12 71.86"/><path class="cls-1" d="M216.51,58.46v-.55a2,2,0,0,0-2-2H208V51.11h-3.8v4.83h-4.19v2.52h4.12q-.33,8.1-4.15,13.06v3.69q7.26-4.06,7.94-16.75Z"/><path class="cls-1" d="M197.48,51.18a12,12,0,0,1-4.7,7.15v3a12.43,12.43,0,0,0,2.65-1.06V75.18h3.69V56.79a15.63,15.63,0,0,0,2-5.61Z"/><path class="cls-1" d="M241.59,56.41h-6.48V54.93h8.26v-.46a2,2,0,0,0-2-2h-6.36V51H230.5v1.48h-9.19V64.22a21.91,21.91,0,0,1-.34,4.4,10.12,10.12,0,0,1-1.25,3.16v3.45Q225,73.16,225,64.4v-2h6.64v1.41h-5.92v2.31h5.92v6.68h-2.15V75.1h5.62V70.38a23.24,23.24,0,0,0,8,4.19V71.7a22.44,22.44,0,0,1-3.42-1.62H240a11.85,11.85,0,0,0,1.09-3.42h-3a14.45,14.45,0,0,1-.53,2,25.31,25.31,0,0,1-2.47-2v-.58h6.48V62.36h2V60.05h-2Zm-10,0h-5.76v2.31h5.76v1.33H225V54.93h6.64Zm6.69,7.36h-3.22V62.36h3.22Zm0-3.72h-3.22V58.72h3.22Z"/><path class="cls-1" d="M224.1,74.12a26.18,26.18,0,0,0,7.06-3.21V68l-.45.24c-.57.32-1,.55-1.28.69a14.11,14.11,0,0,1-.61-2.26h-3a11.56,11.56,0,0,0,1.09,3.42,25,25,0,0,1-2.84,1.07Z"/><path class="cls-1" d="M250.22,54.29h15.66V56h3.69V54.65a2.43,2.43,0,0,0-2.43-2.43h-6.7V51.05h-4.59v1.17h-6.52a2.8,2.8,0,0,0-2.8,2.8v1h3.69Z"/><path class="cls-1" d="M265.19,64h4.54V62h-6.05V60.87h4.19V59.1h-4.19V58h3.61V56.23h-3.61V55h-3.59v1.22h-4V55h-3.59v1.22h-3.58V58h3.58V59.1h-4.16v1.77h4.16V62h-6.05V64h4.49a16.54,16.54,0,0,1-4.73,2.12v2.45a21.1,21.1,0,0,0,4.22-1.17V71.2h3.45V67.32h8.66V71.2H266V67.46a19.62,19.62,0,0,0,4,1.09V66.08A16,16,0,0,1,265.19,64Zm-9.13-6h4V59.1h-4Zm0,2.86h4V62h-4Zm-2.13,4.46A9.94,9.94,0,0,0,255.42,64h5.28a8.86,8.86,0,0,0,1.46,1.35Z"/><path class="cls-1" d="M260.12,68.7V68h-4v.74q.24,3.38-9,4.12v2.41q8.45-.26,11-2.92,3,2.52,10.83,2.92V72.79Q259.88,71.89,260.12,68.7Z"/><path class="cls-1" d="M160.07,102.29c0-14.7,6.65-18.8,17.93-18.8a35.13,35.13,0,0,1,8.62.93,1,1,0,0,1,.72.94v6.12a1,1,0,0,1-1.25.93,23.71,23.71,0,0,0-6.81-.93c-6.45,0-9.2,2.42-9.2,10.81s2.75,10.75,9.4,10.75a23.41,23.41,0,0,0,6.94-.92,1,1,0,0,1,1.25.93v6a1,1,0,0,1-.66.93,33.29,33.29,0,0,1-9,1.16C166.72,121.09,160.07,117,160.07,102.29Z"/><path class="cls-1" d="M192.31,106.33c0-11.54,5.12-14.76,14-14.76s13.92,3.22,13.92,14.76-5.11,14.76-13.92,14.76S192.31,117.88,192.31,106.33Zm20.09,0c0-6.9-1.53-9.06-6.12-9.06s-6.11,2.16-6.11,9.06,1.53,9,6.11,9S212.4,113.29,212.4,106.33Z"/><path class="cls-1" d="M252.41,101.11V119.8a.77.77,0,0,1-.76.77h-6.12a.77.77,0,0,1-.76-.77V103.12c0-3.85-.9-5.33-4.64-5.33-3.12,0-5.17.93-6,3.79a.85.85,0,0,0,0,.23v18a.78.78,0,0,1-.77.77h-6.11a.77.77,0,0,1-.77-.77V92.86a.76.76,0,0,1,.77-.76h6.11a.77.77,0,0,1,.77.76v.5a.76.76,0,0,0,1.26.58c1.74-1.6,4.41-2.37,7.64-2.37C250,91.57,252.41,94.84,252.41,101.11Z"/><path class="cls-1" d="M258.47,106.33c0-11.54,5.22-14.76,14.08-14.76a28,28,0,0,1,6.76.73.76.76,0,0,1,.57.74v4.8a.76.76,0,0,1-1,.73,18.92,18.92,0,0,0-5.35-.72c-5.06,0-7.22,1.89-7.22,8.48s2.16,8.44,7.38,8.44a18.54,18.54,0,0,0,5.45-.72.76.76,0,0,1,1,.73v4.67a.77.77,0,0,1-.52.73,26.26,26.26,0,0,1-7.07.91C263.69,121.09,258.47,117.88,258.47,106.33Z"/><path class="cls-1" d="M310.16,108.06l-16.94,1.07a.77.77,0,0,0-.71.87c.52,3.49,2.91,5.08,7.61,5.08a25.27,25.27,0,0,0,8.4-1.53.77.77,0,0,1,1,.72v4.36a.78.78,0,0,1-.43.69c-1.91.92-5.91,1.77-10.48,1.77-8.7,0-13.87-3.21-13.87-14.76S290,91.57,298.86,91.57c9.91,0,12.17,5.17,12.17,12.5a30.28,30.28,0,0,1-.16,3.32A.77.77,0,0,1,310.16,108.06Zm-6.81-5a.78.78,0,0,0,.71-.8c-.13-2.76-1.09-4.9-5.2-4.9-4.37,0-6,1.78-6.38,5.64a.77.77,0,0,0,.82.83Z"/><path class="cls-1" d="M344.72,106.33c0,8.17-2.11,14.76-11.33,14.76-3.69,0-5.9-.81-7.28-2.18a.76.76,0,0,0-1.32.52v10.92a.76.76,0,0,1-.76.76h-6.12a.76.76,0,0,1-.76-.76V92.86a.76.76,0,0,1,.76-.76H324a.76.76,0,0,1,.76.76v.42a.76.76,0,0,0,1.27.58c1.42-1.33,3.71-2.29,7.33-2.29C342.61,91.57,344.72,97.27,344.72,106.33Zm-7.8,0c0-5.22-.79-9.06-6-9.06s-6.59,3.32-6.59,9.06c0,5.49,1.37,9,6.59,9S336.92,111.24,336.92,106.33Z"/><path class="cls-1" d="M359.93,98.11a.76.76,0,0,0-.76.77v11.93c0,3.33.57,4.12,3.26,4.12a12.56,12.56,0,0,0,1.43-.07.77.77,0,0,1,.84.76V120a.77.77,0,0,1-.68.76,26.78,26.78,0,0,1-3,.17c-7,0-9.49-1.95-9.49-9.43V98.88a.76.76,0,0,0-.77-.77h-2.21a.76.76,0,0,1-.76-.77V92.86a.76.76,0,0,1,.76-.76h2.21a.76.76,0,0,0,.77-.77V86.12a.76.76,0,0,1,.77-.77h6.11a.77.77,0,0,1,.77.77v5.21a.76.76,0,0,0,.76.77h4.37a.76.76,0,0,1,.77.76v4.48a.76.76,0,0,1-.77.77Z"/><path class="cls-1" d="M368.6,119.37v-4.75a.76.76,0,0,1,.95-.74,31.5,31.5,0,0,0,7.64,1.05c3.33,0,4.75-.58,4.75-2.85s-.9-2.85-5.48-4c-6.12-1.43-7.54-3.27-7.54-8.07,0-5.32,3.11-8.49,11.39-8.49a29.62,29.62,0,0,1,7.22.76.78.78,0,0,1,.55.78l-.24,4.33a.76.76,0,0,1-.94.71,30.63,30.63,0,0,0-6.33-.83c-3.53,0-4.48.68-4.48,2.63,0,1.8.79,2.11,5.27,3.22,6.22,1.58,7.85,3.48,7.85,8.7,0,6.69-4.27,9-11.59,9a43.65,43.65,0,0,1-8.42-.76A.76.76,0,0,1,368.6,119.37Z"/><path class="cls-1" d="M69.32,122.23a6.11,6.11,0,0,1-5.52-8.68L91.24,54.62a6.09,6.09,0,0,1,5.53-3.52h0a6.08,6.08,0,0,1,5.52,3.52l27.44,58.93a6.1,6.1,0,0,1-5.53,8.67H110.92a6.1,6.1,0,1,1,0-12.19h3.72L96.77,71.64,74.85,118.7A6.09,6.09,0,0,1,69.32,122.23Z"/><path class="cls-1" d="M143.89,123.07a6.09,6.09,0,0,1-6.09-6.1V74.7a6.1,6.1,0,1,1,12.19,0V117A6.1,6.1,0,0,1,143.89,123.07Z"/><circle class="cls-1" cx="143.87" cy="57.19" r="6.14"/><circle class="cls-1" cx="90.91" cy="116.15" r="6.12"/></svg>