<svg id="图层_1" data-name="图层 1" xmlns="http://www.w3.org/2000/svg" viewBox="0 0 468.4 167.48"><defs><style>.cls-1{fill:#fff;}</style></defs><title>智优康赛logo</title><path class="cls-1" d="M189.07,63.12V67q7.67-1.08,10.78-4.89,3.12,3.54,9.66,4.68V62.55A15.57,15.57,0,0,1,203.19,59h6.5V55.4h-7.37a13.91,13.91,0,0,0,.09-1.6V52.24h6.37V51.11a2.46,2.46,0,0,0-2.46-2.46h-9a13,13,0,0,0,.65-2H193.1a6.68,6.68,0,0,1-4.08,4v3.72a10.71,10.71,0,0,0,5.63-2.08h2.26v1.65a12.38,12.38,0,0,1-.09,1.51H189V59h6.55C194.35,60.81,192.19,62.19,189.07,63.12Z"/><path class="cls-1" d="M221.74,67.19H192.88V85.47H224.2V69.65A2.46,2.46,0,0,0,221.74,67.19Zm-3.39,14.34H198.73V78h19.62Zm0-7.11H198.73V71.13h19.62Z"/><path class="cls-1" d="M224.08,48.73H210.9V64.94h15.64V51.19A2.46,2.46,0,0,0,224.08,48.73Zm-2.87,12.61h-5v-9h5Z"/><path class="cls-1" d="M266.83,53.63a50.58,50.58,0,0,0-1.6-6h-5.42q1.05,3.9,1.39,6Z"/><polygon class="cls-1" points="266.66 80.7 262.41 80.7 262.41 61.9 256.43 61.9 256.43 84.91 271.21 84.91 271.21 76.89 266.66 76.89 266.66 80.7"/><path class="cls-1" d="M270.56,58.83v-.9a3.22,3.22,0,0,0-3.22-3.22h-10.6V46.83h-6.2v7.88H243.7v4.12h6.71Q249.9,72,243.65,80.14v6q11.83-6.63,13-27.33Z"/><path class="cls-1" d="M239.49,47a19.51,19.51,0,0,1-7.66,11.65v4.94a20.5,20.5,0,0,0,4.33-1.73v24.3h6v-30A25.5,25.5,0,0,0,245.43,47Z"/><path class="cls-1" d="M311.5,55.49H300.93V53.07H314.4v-.76a3.19,3.19,0,0,0-3.19-3.19H300.84V46.7h-7.45v2.42h-15V68.23a36.14,36.14,0,0,1-.56,7.19,16.62,16.62,0,0,1-2,5.16v5.63q8.67-3.39,8.62-17.68V65.2h10.83v2.29h-9.66v3.77h9.66V82.18h-3.51V86h9.19V78.28a37.78,37.78,0,0,0,13,6.84V80.44a36.41,36.41,0,0,1-5.59-2.64h.52a19,19,0,0,0,1.77-5.59h-4.85a27.56,27.56,0,0,1-.86,3.34,37.85,37.85,0,0,1-4-3.34v-.95H311.5V65.2h3.29V61.43H311.5Zm-16.25,0h-9.4v3.77h9.4v2.17H284.42V53.07h10.83Zm10.92,12h-5.24V65.2h5.24Zm0-6.06h-5.24V59.26h5.24Z"/><path class="cls-1" d="M283,84.39a42.36,42.36,0,0,0,11.52-5.24V74.38l-.73.39c-.93.52-1.62.9-2.08,1.13a20.4,20.4,0,0,1-1-3.69h-4.85a19,19,0,0,0,1.77,5.59A42.49,42.49,0,0,1,283,79.54Z"/><path class="cls-1" d="M325.58,52h25.56v2.81h6V52.61a4,4,0,0,0-4-4H342.26V46.74h-7.5v1.91H324.13a4.56,4.56,0,0,0-4.57,4.57v1.62h6Z"/><path class="cls-1" d="M350,67.84h7.41V64.68h-9.88V62.77h6.85v-2.9h-6.85V58.09h5.89v-2.9h-5.89v-2h-5.85v2h-6.58v-2h-5.85v2h-5.85v2.9h5.85v1.78h-6.8v2.9h6.8v1.91h-9.88v3.16h7.32A26.57,26.57,0,0,1,319,71.3v4a33.48,33.48,0,0,0,6.89-1.91v6.24h5.63V73.3h14.13v6.32h5.63V73.51a30.79,30.79,0,0,0,6.54,1.78v-4A25.88,25.88,0,0,1,350,67.84Zm-14.9-9.75h6.58v1.78h-6.58Zm0,4.68h6.58v1.91h-6.58Zm-3.47,7.28a15.77,15.77,0,0,0,2.43-2.21h8.62a14.58,14.58,0,0,0,2.38,2.21Z"/><path class="cls-1" d="M341.74,75.55V74.34H335.2v1.21q.39,5.51-14.65,6.71v3.95q13.79-.43,18-4.77,4.86,4.13,17.68,4.77v-4Q341.34,80.75,341.74,75.55Z"/><path class="cls-1" d="M187.59,104.7c0-11,5-14,13.38-14a27,27,0,0,1,6.42.69.74.74,0,0,1,.54.71v4.56a.73.73,0,0,1-.93.7,17.52,17.52,0,0,0-5.08-.7c-4.81,0-6.87,1.81-6.87,8.07s2.06,8,7,8a17.68,17.68,0,0,0,5.17-.68.73.73,0,0,1,.94.69v4.44a.72.72,0,0,1-.5.69,24.55,24.55,0,0,1-6.71.87C192.55,118.72,187.59,115.67,187.59,104.7Z"/><path class="cls-1" d="M211.64,107.71c0-8.61,3.81-11,10.42-11s10.38,2.4,10.38,11-3.82,11-10.38,11S211.64,116.32,211.64,107.71Zm15,0c0-5.15-1.14-6.76-4.56-6.76s-4.56,1.61-4.56,6.76,1.14,6.69,4.56,6.69S226.62,112.9,226.62,107.71Z"/><path class="cls-1" d="M256.46,103.82v13.94a.57.57,0,0,1-.57.57h-4.56a.58.58,0,0,1-.57-.57V105.31c0-2.87-.67-4-3.46-4-2.33,0-3.85.69-4.5,2.83a.88.88,0,0,0,0,.17v13.42a.58.58,0,0,1-.57.57h-4.56a.57.57,0,0,1-.57-.57V97.67a.56.56,0,0,1,.57-.57h4.56a.57.57,0,0,1,.57.57V98a.57.57,0,0,0,.94.44,8.27,8.27,0,0,1,5.7-1.77C254.69,96.7,256.46,99.14,256.46,103.82Z"/><path class="cls-1" d="M261,107.71c0-8.61,3.9-11,10.5-11a21,21,0,0,1,5,.54.58.58,0,0,1,.42.56v3.58a.57.57,0,0,1-.73.54,14.21,14.21,0,0,0-4-.54c-3.78,0-5.39,1.42-5.39,6.33s1.61,6.29,5.51,6.29a14,14,0,0,0,4.06-.53.56.56,0,0,1,.73.54v3.49a.57.57,0,0,1-.39.54,19.31,19.31,0,0,1-5.27.68C264.88,118.72,261,116.32,261,107.71Z"/><path class="cls-1" d="M299.53,109l-12.63.8a.57.57,0,0,0-.53.65c.39,2.6,2.17,3.79,5.68,3.79a19,19,0,0,0,6.26-1.14.57.57,0,0,1,.78.53v3.25a.6.6,0,0,1-.32.52,20.53,20.53,0,0,1-7.82,1.32c-6.49,0-10.35-2.4-10.35-11s3.86-11,10.5-11c7.4,0,9.09,3.86,9.09,9.32a21.1,21.1,0,0,1-.13,2.48A.58.58,0,0,1,299.53,109Zm-5.07-3.76a.57.57,0,0,0,.52-.6c-.09-2.06-.81-3.65-3.88-3.65-3.25,0-4.5,1.33-4.75,4.21a.56.56,0,0,0,.61.61Z"/><path class="cls-1" d="M325.31,107.71c0,6.1-1.57,11-8.45,11-2.75,0-4.4-.61-5.43-1.63a.57.57,0,0,0-1,.39v8.14a.57.57,0,0,1-.57.57h-4.56a.56.56,0,0,1-.57-.57V97.67a.56.56,0,0,1,.57-.57h4.56a.57.57,0,0,1,.57.57V98a.57.57,0,0,0,.95.43c1.05-1,2.76-1.71,5.46-1.71C323.74,96.7,325.31,101,325.31,107.71Zm-5.82,0c0-3.89-.59-6.76-4.44-6.76s-4.92,2.48-4.92,6.76c0,4.09,1,6.69,4.92,6.69S319.49,111.37,319.49,107.71Z"/><path class="cls-1" d="M336.66,101.58a.56.56,0,0,0-.57.57v8.9c0,2.48.43,3.07,2.43,3.07a8.57,8.57,0,0,0,1.06-.05.57.57,0,0,1,.63.57v3.22a.56.56,0,0,1-.5.57,20.47,20.47,0,0,1-2.25.13c-5.23,0-7.08-1.45-7.08-7v-9.38a.56.56,0,0,0-.57-.57h-1.65a.58.58,0,0,1-.57-.57V97.67a.57.57,0,0,1,.57-.57h1.65a.57.57,0,0,0,.57-.58V92.63a.58.58,0,0,1,.57-.57h4.56a.58.58,0,0,1,.58.57v3.89a.57.57,0,0,0,.57.58h3.26a.57.57,0,0,1,.57.57V101a.58.58,0,0,1-.57.57Z"/><path class="cls-1" d="M343.12,117.43v-3.54a.57.57,0,0,1,.71-.55,23.49,23.49,0,0,0,5.7.78c2.48,0,3.54-.43,3.54-2.12s-.67-2.13-4.09-3c-4.56-1.06-5.62-2.44-5.62-6,0-4,2.32-6.33,8.49-6.33a22.07,22.07,0,0,1,5.39.57.56.56,0,0,1,.41.58l-.18,3.23a.57.57,0,0,1-.7.53,23,23,0,0,0-4.72-.62c-2.64,0-3.34.51-3.34,2s.59,1.58,3.93,2.4c4.64,1.18,5.86,2.6,5.86,6.49,0,5-3.19,6.72-8.65,6.72a32.17,32.17,0,0,1-6.28-.57A.57.57,0,0,1,343.12,117.43Z"/><path class="cls-1" d="M95.1,119.34a6.2,6.2,0,0,1-5.61-8.81l27.87-59.86A6.17,6.17,0,0,1,123,47.09h0a6.19,6.19,0,0,1,5.62,3.58l27.87,59.86a6.21,6.21,0,0,1-5.62,8.81H137.35a6.2,6.2,0,1,1,0-12.39h3.78L123,68l-22.26,47.81A6.19,6.19,0,0,1,95.1,119.34Z"/><path class="cls-1" d="M170.84,120.19a6.19,6.19,0,0,1-6.19-6.19V71.06a6.19,6.19,0,0,1,12.38,0V114A6.19,6.19,0,0,1,170.84,120.19Z"/><circle class="cls-1" cx="170.82" cy="53.28" r="6.23"/><circle class="cls-1" cx="117.03" cy="113.16" r="6.21"/></svg>