<svg id="图层_1" data-name="图层 1" xmlns="http://www.w3.org/2000/svg" xmlns:xlink="http://www.w3.org/1999/xlink" viewBox="0 0 468.4 167.48"><defs><style>.cls-1{fill:#036eb8;}.cls-2{fill:url(#未命名的渐变_22);}.cls-3{fill:url(#未命名的渐变_22-2);}.cls-4{fill:#c30d23;}</style><linearGradient id="未命名的渐变_22" x1="84.92" y1="110.51" x2="84.92" y2="54.3" gradientUnits="userSpaceOnUse"><stop offset="0" stop-color="#2ea7e0"/><stop offset="1" stop-color="#172a88"/></linearGradient><linearGradient id="未命名的渐变_22-2" x1="122.17" y1="111.18" x2="122.17" y2="68.13" xlink:href="#未命名的渐变_22"/></defs><title>智优康赛logo</title><path class="cls-1" d="M139,86.39C139,68.85,146.94,64,160.4,64a42.37,42.37,0,0,1,10.28,1.11,1.16,1.16,0,0,1,.85,1.12v7.3a1.15,1.15,0,0,1-1.48,1.11,28.55,28.55,0,0,0-8.13-1.1c-7.69,0-11,2.88-11,12.89s3.28,12.82,11.21,12.82a28,28,0,0,0,8.28-1.09,1.17,1.17,0,0,1,1.5,1.11v7.1a1.15,1.15,0,0,1-.8,1.1,39.7,39.7,0,0,1-10.74,1.39C146.94,108.82,139,103.94,139,86.39Z"/><path class="cls-1" d="M177.47,91.21c0-13.77,6.1-17.61,16.67-17.61s16.6,3.84,16.6,17.61-6.1,17.61-16.6,17.61S177.47,105,177.47,91.21Zm24,0c0-8.23-1.82-10.81-7.29-10.81s-7.3,2.58-7.3,10.81,1.82,10.7,7.3,10.7S201.43,99.52,201.43,91.21Z"/><path class="cls-1" d="M249.16,85v22.29a.91.91,0,0,1-.91.91H241a.91.91,0,0,1-.92-.91V87.38C240,82.79,239,81,234.51,81c-3.72,0-6.16,1.1-7.19,4.51a.9.9,0,0,0,0,.28v21.46a.91.91,0,0,1-.92.91h-7.29a.91.91,0,0,1-.91-.91V75.15a.92.92,0,0,1,.91-.92h7.29a.92.92,0,0,1,.92.92v.59a.9.9,0,0,0,1.5.69c2.09-1.91,5.26-2.83,9.13-2.83C246.33,73.6,249.16,77.5,249.16,85Z"/><path class="cls-1" d="M256.4,91.21c0-13.77,6.22-17.61,16.79-17.61a33.54,33.54,0,0,1,8.07.87.91.91,0,0,1,.67.89v5.72a.91.91,0,0,1-1.17.88,22.22,22.22,0,0,0-6.38-.87c-6,0-8.61,2.26-8.61,10.12s2.57,10.07,8.8,10.07a22.14,22.14,0,0,0,6.5-.86.91.91,0,0,1,1.17.87v5.57a.89.89,0,0,1-.62.87,31.3,31.3,0,0,1-8.43,1.09C262.62,108.82,256.4,105,256.4,91.21Z"/><path class="cls-1" d="M318.05,93.27l-20.2,1.28a.92.92,0,0,0-.85,1c.62,4.16,3.47,6.06,9.08,6.06a30.41,30.41,0,0,0,10-1.82.91.91,0,0,1,1.24.85v5.2a.93.93,0,0,1-.52.83c-2.28,1.09-7,2.11-12.5,2.11-10.38,0-16.54-3.83-16.54-17.61s6.16-17.61,16.79-17.61c11.82,0,14.53,6.17,14.53,14.91a35.9,35.9,0,0,1-.2,4A.9.9,0,0,1,318.05,93.27Zm-8.12-6a.93.93,0,0,0,.85-1c-.16-3.29-1.3-5.84-6.21-5.84-5.21,0-7.21,2.12-7.61,6.73a.92.92,0,0,0,1,1Z"/><path class="cls-1" d="M359.28,91.21c0,9.75-2.51,17.61-13.52,17.61-4.4,0-7-1-8.67-2.6a.91.91,0,0,0-1.58.62v13a.91.91,0,0,1-.91.91h-7.29a.92.92,0,0,1-.92-.91V75.15a.92.92,0,0,1,.92-.92h7.29a.92.92,0,0,1,.91.92v.49a.91.91,0,0,0,1.52.69c1.68-1.58,4.42-2.73,8.73-2.73C356.77,73.6,359.28,80.4,359.28,91.21Zm-9.3,0c0-6.22-1-10.81-7.11-10.81s-7.86,4-7.86,10.81c0,6.54,1.63,10.7,7.86,10.7S350,97.06,350,91.21Z"/><path class="cls-1" d="M377.43,81.4a.91.91,0,0,0-.91.92V96.56c0,4,.69,4.91,3.89,4.91.62,0,1.19,0,1.7-.08a.91.91,0,0,1,1,.91v5.15a.91.91,0,0,1-.81.91,32.08,32.08,0,0,1-3.59.21c-8.37,0-11.32-2.32-11.32-11.26v-15a.92.92,0,0,0-.92-.92h-2.64a.91.91,0,0,1-.91-.91V75.15a.92.92,0,0,1,.91-.92h2.64a.92.92,0,0,0,.92-.91V67.1a.92.92,0,0,1,.91-.92h7.29a.92.92,0,0,1,.92.92v6.22a.91.91,0,0,0,.91.91h5.22a.92.92,0,0,1,.91.92v5.34a.91.91,0,0,1-.91.91Z"/><path class="cls-1" d="M387.77,106.76V101.1a.91.91,0,0,1,1.14-.88,37.46,37.46,0,0,0,9.11,1.25c4,0,5.66-.7,5.66-3.4s-1.07-3.4-6.54-4.72c-7.29-1.7-9-3.9-9-9.62,0-6.35,3.71-10.13,13.58-10.13a35.51,35.51,0,0,1,8.63.91.91.91,0,0,1,.64.93l-.28,5.17a.9.9,0,0,1-1.11.84,36.35,36.35,0,0,0-7.56-1c-4.22,0-5.35.82-5.35,3.14,0,2.14.95,2.52,6.29,3.84,7.42,1.89,9.37,4.15,9.37,10.38,0,8-5.09,10.75-13.83,10.75a51.53,51.53,0,0,1-10-.91A.92.92,0,0,1,387.77,106.76Z"/><path class="cls-2" d="M63.23,110.51a4.75,4.75,0,0,1-2-.45,4.82,4.82,0,0,1-2.34-6.4L80.55,57.08a4.82,4.82,0,0,1,4.37-2.78h0a4.82,4.82,0,0,1,4.37,2.78L111,103.66a4.81,4.81,0,0,1-4.37,6.85H96.1a4.82,4.82,0,0,1,0-9.64h3L84.92,70.53,67.6,107.73A4.82,4.82,0,0,1,63.23,110.51Z"/><path class="cls-3" d="M122.17,111.18a4.82,4.82,0,0,1-4.82-4.82V73A4.82,4.82,0,1,1,127,73v33.41A4.82,4.82,0,0,1,122.17,111.18Z"/><circle class="cls-4" cx="122.15" cy="59.11" r="4.85"/><circle class="cls-4" cx="80.29" cy="105.71" r="4.83"/></svg>