<svg id="图层_1" data-name="图层 1" xmlns="http://www.w3.org/2000/svg" viewBox="0 0 468.4 167.48"><defs><style>.cls-1{fill:#fff;}</style></defs><title>智优康赛logo</title><path class="cls-1" d="M179.24,61.09v2.36c3.13-.44,5.34-1.44,6.61-3a9.81,9.81,0,0,0,5.92,2.87V60.74a9.66,9.66,0,0,1-3.88-2.2h4V56.36h-4.52a7.82,7.82,0,0,0,.06-1v-1h3.9v-.69a1.52,1.52,0,0,0-1.51-1.51h-5.53a7,7,0,0,0,.4-1.22h-3a4,4,0,0,1-2.5,2.41V55.7a6.56,6.56,0,0,0,3.45-1.28h1.39v1a7,7,0,0,1-.06.93h-4.78v2.18h4A6.89,6.89,0,0,1,179.24,61.09Z"/><path class="cls-1" d="M199.26,63.58H181.58v11.2h19.19V65.09A1.52,1.52,0,0,0,199.26,63.58Zm-2.08,8.79h-12V70.22h12Zm0-4.36h-12V66h12Z"/><path class="cls-1" d="M200.69,52.27h-8.07V62.2h9.58V53.78A1.51,1.51,0,0,0,200.69,52.27ZM198.94,60h-3.06V54.48h3.06Z"/><path class="cls-1" d="M226.89,55.27a31.46,31.46,0,0,0-1-3.66h-3.31c.42,1.59.7,2.81.85,3.66Z"/><polygon class="cls-1" points="226.78 71.86 224.18 71.86 224.18 60.34 220.52 60.34 220.52 74.44 229.57 74.44 229.57 69.53 226.78 69.53 226.78 71.86"/><path class="cls-1" d="M229.17,58.46v-.55a2,2,0,0,0-2-2h-6.5V51.11h-3.79v4.83h-4.2v2.52h4.12q-.33,8.1-4.14,13.06v3.69q7.25-4.06,7.93-16.75Z"/><path class="cls-1" d="M210.14,51.18a12,12,0,0,1-4.7,7.15v3a12.43,12.43,0,0,0,2.65-1.06V75.18h3.69V56.79a15.44,15.44,0,0,0,2-5.61Z"/><path class="cls-1" d="M254.25,56.41h-6.47V54.93H256v-.46a2,2,0,0,0-1.95-2h-6.36V51h-4.56v1.48H234V64.22a21.91,21.91,0,0,1-.34,4.4,9.88,9.88,0,0,1-1.25,3.16v3.45q5.31-2.07,5.28-10.83v-2h6.64v1.41h-5.92v2.31h5.92v6.68h-2.15V75.1h5.63V70.38a23.15,23.15,0,0,0,8,4.19V71.7a22.55,22.55,0,0,1-3.43-1.62h.32a11.56,11.56,0,0,0,1.09-3.42h-3a15.92,15.92,0,0,1-.54,2,24.11,24.11,0,0,1-2.46-2v-.58h6.47V62.36h2V60.05h-2Zm-9.95,0h-5.76v2.31h5.76v1.33h-6.64V54.93h6.64ZM251,63.77h-3.21V62.36H251Zm0-3.72h-3.21V58.72H251Z"/><path class="cls-1" d="M236.76,74.12a26.18,26.18,0,0,0,7.06-3.21V68l-.45.24c-.57.32-1,.55-1.27.69a12.29,12.29,0,0,1-.61-2.26h-3a11.85,11.85,0,0,0,1.09,3.42,24.32,24.32,0,0,1-2.84,1.07Z"/><path class="cls-1" d="M262.88,54.29h15.66V56h3.69V54.65a2.43,2.43,0,0,0-2.43-2.43h-6.7V51.05h-4.59v1.17H262a2.8,2.8,0,0,0-2.8,2.8v1h3.69Z"/><path class="cls-1" d="M277.85,64h4.54V62h-6.05V60.87h4.19V59.1h-4.19V58H280V56.23h-3.61V55h-3.59v1.22h-4V55h-3.58v1.22h-3.59V58h3.59V59.1H261v1.77h4.17V62h-6.06V64h4.49a16.6,16.6,0,0,1-4.72,2.12v2.45a21.48,21.48,0,0,0,4.22-1.17V71.2h3.45V67.32h8.65V71.2h3.45V67.46a19.8,19.8,0,0,0,4,1.09V66.08A16.09,16.09,0,0,1,277.85,64Zm-9.13-6h4V59.1h-4Zm0,2.86h4V62h-4Zm-2.12,4.46A9.87,9.87,0,0,0,268.08,64h5.28a9.28,9.28,0,0,0,1.46,1.35Z"/><path class="cls-1" d="M272.78,68.7V68h-4v.74q.24,3.38-9,4.12v2.41q8.44-.26,11-2.92,3,2.52,10.83,2.92V72.79Q272.55,71.89,272.78,68.7Z"/><path class="cls-1" d="M172.74,102.29c0-14.7,6.64-18.8,17.93-18.8a35.1,35.1,0,0,1,8.61.93,1,1,0,0,1,.72.94v6.12a1,1,0,0,1-1.24.93,23.83,23.83,0,0,0-6.82-.93c-6.44,0-9.2,2.42-9.2,10.81S185.5,113,192.14,113a23.41,23.41,0,0,0,6.94-.92,1,1,0,0,1,1.26.93v6a1,1,0,0,1-.67.93,33.26,33.26,0,0,1-9,1.16C179.38,121.09,172.74,117,172.74,102.29Z"/><path class="cls-1" d="M205,106.33c0-11.54,5.12-14.76,14-14.76s13.91,3.22,13.91,14.76-5.11,14.76-13.91,14.76S205,117.88,205,106.33Zm20.09,0c0-6.9-1.53-9.06-6.11-9.06s-6.12,2.16-6.12,9.06,1.53,9,6.12,9S225.06,113.29,225.06,106.33Z"/><path class="cls-1" d="M265.07,101.11V119.8a.77.77,0,0,1-.76.77H258.2a.77.77,0,0,1-.77-.77V103.12c0-3.85-.9-5.33-4.64-5.33-3.12,0-5.16.93-6,3.79a.85.85,0,0,0,0,.23v18a.78.78,0,0,1-.77.77h-6.11a.78.78,0,0,1-.77-.77V92.86a.77.77,0,0,1,.77-.76H246a.77.77,0,0,1,.77.76v.5a.76.76,0,0,0,1.26.58c1.74-1.6,4.41-2.37,7.65-2.37C262.7,91.57,265.07,94.84,265.07,101.11Z"/><path class="cls-1" d="M271.14,106.33c0-11.54,5.21-14.76,14.07-14.76a28,28,0,0,1,6.76.73.76.76,0,0,1,.57.74v4.8a.76.76,0,0,1-1,.73,18.92,18.92,0,0,0-5.35-.72c-5.06,0-7.22,1.89-7.22,8.48s2.16,8.44,7.38,8.44a18.54,18.54,0,0,0,5.45-.72.76.76,0,0,1,1,.73v4.67a.77.77,0,0,1-.52.73,26.26,26.26,0,0,1-7.07.91C276.35,121.09,271.14,117.88,271.14,106.33Z"/><path class="cls-1" d="M322.82,108.06l-16.93,1.07a.77.77,0,0,0-.72.87c.53,3.49,2.91,5.08,7.61,5.08a25.22,25.22,0,0,0,8.4-1.53.77.77,0,0,1,1,.72v4.36a.76.76,0,0,1-.43.69c-1.91.92-5.9,1.77-10.48,1.77-8.7,0-13.87-3.21-13.87-14.76s5.17-14.76,14.08-14.76c9.91,0,12.18,5.17,12.18,12.5a30,30,0,0,1-.17,3.32A.77.77,0,0,1,322.82,108.06ZM316,103a.78.78,0,0,0,.71-.8c-.13-2.76-1.08-4.9-5.2-4.9-4.37,0-6,1.78-6.38,5.64a.77.77,0,0,0,.82.83Z"/><path class="cls-1" d="M357.38,106.33c0,8.17-2.11,14.76-11.33,14.76-3.69,0-5.9-.81-7.27-2.18a.77.77,0,0,0-1.33.52v10.92a.76.76,0,0,1-.76.76h-6.11a.76.76,0,0,1-.77-.76V92.86a.76.76,0,0,1,.77-.76h6.11a.76.76,0,0,1,.76.76v.42a.77.77,0,0,0,1.28.58c1.41-1.33,3.71-2.29,7.32-2.29C355.27,91.57,357.38,97.27,357.38,106.33Zm-7.8,0c0-5.22-.79-9.06-6-9.06s-6.59,3.32-6.59,9.06c0,5.49,1.37,9,6.59,9S349.58,111.24,349.58,106.33Z"/><path class="cls-1" d="M372.59,98.11a.76.76,0,0,0-.76.77v11.93c0,3.33.58,4.12,3.27,4.12a12.49,12.49,0,0,0,1.42-.07.77.77,0,0,1,.84.76V120a.77.77,0,0,1-.68.76,26.64,26.64,0,0,1-3,.17c-7,0-9.49-1.95-9.49-9.43V98.88a.76.76,0,0,0-.76-.77h-2.21a.76.76,0,0,1-.77-.77V92.86a.76.76,0,0,1,.77-.76h2.21a.76.76,0,0,0,.76-.77V86.12a.77.77,0,0,1,.77-.77h6.11a.77.77,0,0,1,.77.77v5.21a.76.76,0,0,0,.76.77H377a.76.76,0,0,1,.76.76v4.48a.76.76,0,0,1-.76.77Z"/><path class="cls-1" d="M381.26,119.37v-4.75a.76.76,0,0,1,1-.74,31.43,31.43,0,0,0,7.64,1.05c3.32,0,4.74-.58,4.74-2.85s-.9-2.85-5.48-4c-6.12-1.43-7.54-3.27-7.54-8.07,0-5.32,3.11-8.49,11.39-8.49a29.62,29.62,0,0,1,7.22.76.77.77,0,0,1,.55.78l-.24,4.33a.76.76,0,0,1-.93.71,30.82,30.82,0,0,0-6.34-.83c-3.53,0-4.48.68-4.48,2.63,0,1.8.79,2.11,5.27,3.22,6.22,1.58,7.86,3.48,7.86,8.7,0,6.69-4.27,9-11.6,9a43.54,43.54,0,0,1-8.41-.76A.76.76,0,0,1,381.26,119.37Z"/><path class="cls-1" d="M82,122.23a6.11,6.11,0,0,1-5.52-8.68L103.9,54.62a6.1,6.1,0,0,1,5.53-3.52h0A6.08,6.08,0,0,1,115,54.62l27.44,58.93a6.09,6.09,0,0,1-5.53,8.67H123.58a6.1,6.1,0,1,1,0-12.19h3.72L109.43,71.64,87.52,118.7A6.12,6.12,0,0,1,82,122.23Z"/><path class="cls-1" d="M156.55,123.07a6.1,6.1,0,0,1-6.09-6.1V74.7a6.1,6.1,0,1,1,12.19,0V117A6.1,6.1,0,0,1,156.55,123.07Z"/><circle class="cls-1" cx="156.53" cy="57.19" r="6.14"/><circle class="cls-1" cx="103.58" cy="116.15" r="6.12"/></svg>